999
"DXF R12 Output" (www.mydxf.blogspot.com)
 0 
SECTION
 2 
HEADER
 9 
$ACADVER
 1 
AC1009
 9 
$EXTMIN
 10 
 0 
 20 
 0 
 9 
$EXTMAX
 10 
 8.5 
 20 
 11 
 0 
ENDSEC
 0 
SECTION
 2 
ENTITIES
0
LINE
8
Layer 1
10
0.793749
20
297.794000
11
-0.793749
21
296.206000
0
LINE
8
Layer 1
10
0.000000
20
298.323000
11
0.000000
21
295.677000
0
LINE
8
Layer 1
10
2.116660
20
295.942000
11
1.058330
21
294.883670
0
LINE
8
Layer 1
10
1.587500
20
296.471000
11
0.529170
21
295.412670
0
LINE
8
Layer 1
10
1.058330
20
297.000000
11
0.000000
21
295.941670
0
LINE
8
0
10
80.338900
20
175.267000
11
20.339000
21
175.267000
0
LINE
8
0
10
20.339000
20
175.267000
11
20.339000
21
275.267000
0
LINE
8
0
10
20.339000
20
275.267000
11
80.338900
21
275.267000
0
LINE
8
0
10
80.338900
20
275.267000
11
80.338900
21
175.267000
0
LINE
8
0
10
50.338900
20
205.267000
11
48.422014
21
205.655972
0
LINE
8
0
10
48.422014
20
205.655972
11
46.553363
21
205.573821
0
LINE
8
0
10
46.553363
20
205.573821
11
44.796855
21
205.066612
0
LINE
8
0
10
44.796855
20
205.066612
11
43.216400
21
204.180411
0
LINE
8
0
10
43.216400
20
204.180411
11
41.875908
21
202.961284
0
LINE
8
0
10
41.875908
20
202.961284
11
40.839288
21
201.455296
0
LINE
8
0
10
40.839288
20
201.455296
11
40.170448
21
199.708513
0
LINE
8
0
10
40.170448
20
199.708513
11
39.933300
21
197.767000
0
LINE
8
0
10
39.933300
20
197.767000
11
40.170449
21
195.825487
0
LINE
8
0
10
40.170449
20
195.825487
11
40.839290
21
194.078704
0
LINE
8
0
10
40.839290
20
194.078704
11
41.875913
21
192.572716
0
LINE
8
0
10
41.875913
20
192.572716
11
43.216408
21
191.353589
0
LINE
8
0
10
43.216408
20
191.353589
11
44.796863
21
190.467388
0
LINE
8
0
10
44.796863
20
190.467388
11
46.553371
21
189.960179
0
LINE
8
0
10
46.553371
20
189.960179
11
48.422020
21
189.878028
0
LINE
8
0
10
48.422020
20
189.878028
11
50.338900
21
190.267000
0
LINE
8
0
10
40.338900
20
225.267000
11
41.025321
21
226.785481
0
LINE
8
0
10
41.025321
20
226.785481
11
41.255434
21
228.341188
0
LINE
8
0
10
41.255434
20
228.341188
11
41.070047
21
229.860245
0
LINE
8
0
10
41.070047
20
229.860245
11
40.509969
21
231.268772
0
LINE
8
0
10
40.509969
20
231.268772
11
39.616008
21
232.492895
0
LINE
8
0
10
39.616008
20
232.492895
11
38.428973
21
233.458735
0
LINE
8
0
10
38.428973
20
233.458735
11
36.989670
21
234.092416
0
LINE
8
0
10
36.989670
20
234.092416
11
35.338910
21
234.320060
0
LINE
8
0
10
35.338910
20
234.320060
11
33.688149
21
234.092416
0
LINE
8
0
10
33.688149
20
234.092416
11
32.248847
21
233.458734
0
LINE
8
0
10
32.248847
20
233.458734
11
31.061811
21
232.492892
0
LINE
8
0
10
31.061811
20
232.492892
11
30.167850
21
231.268769
0
LINE
8
0
10
30.167850
20
231.268769
11
29.607772
21
229.860240
0
LINE
8
0
10
29.607772
20
229.860240
11
29.422386
21
228.341184
0
LINE
8
0
10
29.422386
20
228.341184
11
29.652499
21
226.785478
0
LINE
8
0
10
29.652499
20
226.785478
11
30.338920
21
225.267000
0
LINE
8
0
10
50.338900
20
260.267000
11
48.710563
21
260.252903
0
LINE
8
0
10
48.710563
20
260.252903
11
47.175674
21
259.905891
0
LINE
8
0
10
47.175674
20
259.905891
11
45.772349
21
259.260507
0
LINE
8
0
10
45.772349
20
259.260507
11
44.538704
21
258.351295
0
LINE
8
0
10
44.538704
20
258.351295
11
43.512853
21
257.212796
0
LINE
8
0
10
43.512853
20
257.212796
11
42.732911
21
255.879553
0
LINE
8
0
10
42.732911
20
255.879553
11
42.236995
21
254.386110
0
LINE
8
0
10
42.236995
20
254.386110
11
42.063220
21
252.767010
0
LINE
8
0
10
42.063220
20
252.767010
11
42.236995
21
251.147913
0
LINE
8
0
10
42.236995
20
251.147913
11
42.732910
21
249.654472
0
LINE
8
0
10
42.732910
20
249.654472
11
43.512850
21
248.321231
0
LINE
8
0
10
43.512850
20
248.321231
11
44.538700
21
247.182732
0
LINE
8
0
10
44.538700
20
247.182732
11
45.772345
21
246.273519
0
LINE
8
0
10
45.772345
20
246.273519
11
47.175670
21
245.628134
0
LINE
8
0
10
47.175670
20
245.628134
11
48.710560
21
245.281120
0
LINE
8
0
10
48.710560
20
245.281120
11
50.338900
21
245.267020
0
LINE
8
0
10
60.338900
20
225.267000
11
59.591713
21
224.397307
0
LINE
8
0
10
59.591713
20
224.397307
11
59.016350
21
223.469314
0
LINE
8
0
10
59.016350
20
223.469314
11
58.606269
21
222.498806
0
LINE
8
0
10
58.606269
20
222.498806
11
58.354927
21
221.501572
0
LINE
8
0
10
58.354927
20
221.501572
11
58.302288
21
219.490066
0
LINE
8
0
10
58.302288
20
219.490066
11
58.806093
21
217.561089
0
LINE
8
0
10
58.806093
20
217.561089
11
59.813997
21
215.840932
0
LINE
8
0
10
59.813997
20
215.840932
11
61.273660
21
214.455886
0
LINE
8
0
10
61.273660
20
214.455886
11
62.156543
21
213.928497
0
LINE
8
0
10
62.156543
20
213.928497
11
63.132738
21
213.532245
0
LINE
8
0
10
63.132738
20
213.532245
11
64.195701
21
213.282917
0
LINE
8
0
10
64.195701
20
213.282917
11
65.338890
21
213.196300
0
LINE
8
0
10
65.338890
20
213.196300
11
66.395827
21
213.275478
0
LINE
8
0
10
66.395827
20
213.275478
11
67.412276
21
213.506740
0
LINE
8
0
10
67.412276
20
213.506740
11
68.374146
21
213.880676
0
LINE
8
0
10
68.374146
20
213.880676
11
69.267349
21
214.387874
0
LINE
8
0
10
69.267349
20
214.387874
11
70.077794
21
215.018925
0
LINE
8
0
10
70.077794
20
215.018925
11
70.791392
21
215.764418
0
LINE
8
0
10
70.791392
20
215.764418
11
71.394054
21
216.614943
0
LINE
8
0
10
71.394054
20
216.614943
11
71.871690
21
217.561090
0
LINE
8
0
10
71.871690
20
217.561090
11
72.203006
21
218.567855
0
LINE
8
0
10
72.203006
20
218.567855
11
72.378305
21
219.595425
0
LINE
8
0
10
72.378305
20
219.595425
11
72.400893
21
220.627180
0
LINE
8
0
10
72.400893
20
220.627180
11
72.274076
21
221.646500
0
LINE
8
0
10
72.274076
20
221.646500
11
72.001161
21
222.636763
0
LINE
8
0
10
72.001161
20
222.636763
11
71.585452
21
223.581347
0
LINE
8
0
10
71.585452
20
223.581347
11
71.030257
21
224.463634
0
LINE
8
0
10
71.030257
20
224.463634
11
70.338880
21
225.267000
0
LINE
8
0
10
50.338900
20
175.266000
11
50.338900
21
190.268000
0
LINE
8
0
10
50.338900
20
205.267000
11
50.338900
21
225.267000
0
LINE
8
0
10
50.338900
20
225.267000
11
60.338900
21
225.267000
0
LINE
8
0
10
70.338900
20
225.267000
11
80.338900
21
225.267000
0
LINE
8
0
10
50.338900
20
275.267000
11
50.338900
21
260.267000
0
LINE
8
0
10
50.338900
20
245.267000
11
50.338900
21
225.267000
0
LINE
8
0
10
20.338900
20
225.267000
11
30.338900
21
225.267000
0
LINE
8
0
10
40.338900
20
225.267000
11
50.338900
21
225.267000
0
LINE
8
0
10
80.338900
20
175.267000
11
20.339000
21
175.267000
0
LINE
8
0
10
20.339000
20
175.267000
11
20.339000
21
275.267000
0
LINE
8
0
10
20.339000
20
275.267000
11
80.338900
21
275.267000
0
LINE
8
0
10
80.338900
20
275.267000
11
80.338900
21
175.267000
0
LINE
8
0
10
50.338900
20
205.267000
11
48.422014
21
205.655972
0
LINE
8
0
10
48.422014
20
205.655972
11
46.553363
21
205.573821
0
LINE
8
0
10
46.553363
20
205.573821
11
44.796855
21
205.066612
0
LINE
8
0
10
44.796855
20
205.066612
11
43.216400
21
204.180411
0
LINE
8
0
10
43.216400
20
204.180411
11
41.875908
21
202.961284
0
LINE
8
0
10
41.875908
20
202.961284
11
40.839288
21
201.455296
0
LINE
8
0
10
40.839288
20
201.455296
11
40.170448
21
199.708513
0
LINE
8
0
10
40.170448
20
199.708513
11
39.933300
21
197.767000
0
LINE
8
0
10
39.933300
20
197.767000
11
40.170449
21
195.825487
0
LINE
8
0
10
40.170449
20
195.825487
11
40.839290
21
194.078704
0
LINE
8
0
10
40.839290
20
194.078704
11
41.875913
21
192.572716
0
LINE
8
0
10
41.875913
20
192.572716
11
43.216408
21
191.353589
0
LINE
8
0
10
43.216408
20
191.353589
11
44.796863
21
190.467388
0
LINE
8
0
10
44.796863
20
190.467388
11
46.553371
21
189.960179
0
LINE
8
0
10
46.553371
20
189.960179
11
48.422020
21
189.878028
0
LINE
8
0
10
48.422020
20
189.878028
11
50.338900
21
190.267000
0
LINE
8
0
10
40.338900
20
225.267000
11
41.025321
21
226.785481
0
LINE
8
0
10
41.025321
20
226.785481
11
41.255434
21
228.341188
0
LINE
8
0
10
41.255434
20
228.341188
11
41.070047
21
229.860245
0
LINE
8
0
10
41.070047
20
229.860245
11
40.509969
21
231.268772
0
LINE
8
0
10
40.509969
20
231.268772
11
39.616008
21
232.492895
0
LINE
8
0
10
39.616008
20
232.492895
11
38.428973
21
233.458735
0
LINE
8
0
10
38.428973
20
233.458735
11
36.989670
21
234.092416
0
LINE
8
0
10
36.989670
20
234.092416
11
35.338910
21
234.320060
0
LINE
8
0
10
35.338910
20
234.320060
11
33.688149
21
234.092416
0
LINE
8
0
10
33.688149
20
234.092416
11
32.248847
21
233.458734
0
LINE
8
0
10
32.248847
20
233.458734
11
31.061811
21
232.492892
0
LINE
8
0
10
31.061811
20
232.492892
11
30.167850
21
231.268769
0
LINE
8
0
10
30.167850
20
231.268769
11
29.607772
21
229.860240
0
LINE
8
0
10
29.607772
20
229.860240
11
29.422386
21
228.341184
0
LINE
8
0
10
29.422386
20
228.341184
11
29.652499
21
226.785478
0
LINE
8
0
10
29.652499
20
226.785478
11
30.338920
21
225.267000
0
LINE
8
0
10
50.338900
20
260.267000
11
48.710563
21
260.252903
0
LINE
8
0
10
48.710563
20
260.252903
11
47.175674
21
259.905891
0
LINE
8
0
10
47.175674
20
259.905891
11
45.772349
21
259.260507
0
LINE
8
0
10
45.772349
20
259.260507
11
44.538704
21
258.351295
0
LINE
8
0
10
44.538704
20
258.351295
11
43.512853
21
257.212796
0
LINE
8
0
10
43.512853
20
257.212796
11
42.732911
21
255.879553
0
LINE
8
0
10
42.732911
20
255.879553
11
42.236995
21
254.386110
0
LINE
8
0
10
42.236995
20
254.386110
11
42.063220
21
252.767010
0
LINE
8
0
10
42.063220
20
252.767010
11
42.236995
21
251.147913
0
LINE
8
0
10
42.236995
20
251.147913
11
42.732910
21
249.654472
0
LINE
8
0
10
42.732910
20
249.654472
11
43.512850
21
248.321231
0
LINE
8
0
10
43.512850
20
248.321231
11
44.538700
21
247.182732
0
LINE
8
0
10
44.538700
20
247.182732
11
45.772345
21
246.273519
0
LINE
8
0
10
45.772345
20
246.273519
11
47.175670
21
245.628134
0
LINE
8
0
10
47.175670
20
245.628134
11
48.710560
21
245.281120
0
LINE
8
0
10
48.710560
20
245.281120
11
50.338900
21
245.267020
0
LINE
8
0
10
60.338900
20
225.267000
11
59.591713
21
224.397307
0
LINE
8
0
10
59.591713
20
224.397307
11
59.016350
21
223.469314
0
LINE
8
0
10
59.016350
20
223.469314
11
58.606269
21
222.498806
0
LINE
8
0
10
58.606269
20
222.498806
11
58.354927
21
221.501572
0
LINE
8
0
10
58.354927
20
221.501572
11
58.302288
21
219.490066
0
LINE
8
0
10
58.302288
20
219.490066
11
58.806093
21
217.561089
0
LINE
8
0
10
58.806093
20
217.561089
11
59.813997
21
215.840932
0
LINE
8
0
10
59.813997
20
215.840932
11
61.273660
21
214.455886
0
LINE
8
0
10
61.273660
20
214.455886
11
62.156543
21
213.928497
0
LINE
8
0
10
62.156543
20
213.928497
11
63.132738
21
213.532245
0
LINE
8
0
10
63.132738
20
213.532245
11
64.195701
21
213.282917
0
LINE
8
0
10
64.195701
20
213.282917
11
65.338890
21
213.196300
0
LINE
8
0
10
65.338890
20
213.196300
11
66.395827
21
213.275478
0
LINE
8
0
10
66.395827
20
213.275478
11
67.412276
21
213.506740
0
LINE
8
0
10
67.412276
20
213.506740
11
68.374146
21
213.880676
0
LINE
8
0
10
68.374146
20
213.880676
11
69.267349
21
214.387874
0
LINE
8
0
10
69.267349
20
214.387874
11
70.077794
21
215.018925
0
LINE
8
0
10
70.077794
20
215.018925
11
70.791392
21
215.764418
0
LINE
8
0
10
70.791392
20
215.764418
11
71.394054
21
216.614943
0
LINE
8
0
10
71.394054
20
216.614943
11
71.871690
21
217.561090
0
LINE
8
0
10
71.871690
20
217.561090
11
72.203006
21
218.567855
0
LINE
8
0
10
72.203006
20
218.567855
11
72.378305
21
219.595425
0
LINE
8
0
10
72.378305
20
219.595425
11
72.400893
21
220.627180
0
LINE
8
0
10
72.400893
20
220.627180
11
72.274076
21
221.646500
0
LINE
8
0
10
72.274076
20
221.646500
11
72.001161
21
222.636763
0
LINE
8
0
10
72.001161
20
222.636763
11
71.585452
21
223.581347
0
LINE
8
0
10
71.585452
20
223.581347
11
71.030257
21
224.463634
0
LINE
8
0
10
71.030257
20
224.463634
11
70.338880
21
225.267000
0
LINE
8
0
10
50.338900
20
175.266000
11
50.338900
21
190.268000
0
LINE
8
0
10
50.338900
20
205.267000
11
50.338900
21
225.267000
0
LINE
8
0
10
50.338900
20
225.267000
11
60.338900
21
225.267000
0
LINE
8
0
10
70.338900
20
225.267000
11
80.338900
21
225.267000
0
LINE
8
0
10
50.338900
20
275.267000
11
50.338900
21
260.267000
0
LINE
8
0
10
50.338900
20
245.267000
11
50.338900
21
225.267000
0
LINE
8
0
10
20.338900
20
225.267000
11
30.338900
21
225.267000
0
LINE
8
0
10
40.338900
20
225.267000
11
50.338900
21
225.267000
0
LINE
8
0
10
80.338900
20
175.267000
11
20.339000
21
175.267000
0
LINE
8
0
10
20.339000
20
175.267000
11
20.339000
21
275.267000
0
LINE
8
0
10
20.339000
20
275.267000
11
80.338900
21
275.267000
0
LINE
8
0
10
80.338900
20
275.267000
11
80.338900
21
175.267000
0
LINE
8
0
10
50.338900
20
205.267000
11
48.422014
21
205.655972
0
LINE
8
0
10
48.422014
20
205.655972
11
46.553363
21
205.573821
0
LINE
8
0
10
46.553363
20
205.573821
11
44.796855
21
205.066612
0
LINE
8
0
10
44.796855
20
205.066612
11
43.216400
21
204.180411
0
LINE
8
0
10
43.216400
20
204.180411
11
41.875908
21
202.961284
0
LINE
8
0
10
41.875908
20
202.961284
11
40.839288
21
201.455296
0
LINE
8
0
10
40.839288
20
201.455296
11
40.170448
21
199.708513
0
LINE
8
0
10
40.170448
20
199.708513
11
39.933300
21
197.767000
0
LINE
8
0
10
39.933300
20
197.767000
11
40.170449
21
195.825487
0
LINE
8
0
10
40.170449
20
195.825487
11
40.839290
21
194.078704
0
LINE
8
0
10
40.839290
20
194.078704
11
41.875913
21
192.572716
0
LINE
8
0
10
41.875913
20
192.572716
11
43.216408
21
191.353589
0
LINE
8
0
10
43.216408
20
191.353589
11
44.796863
21
190.467388
0
LINE
8
0
10
44.796863
20
190.467388
11
46.553371
21
189.960179
0
LINE
8
0
10
46.553371
20
189.960179
11
48.422020
21
189.878028
0
LINE
8
0
10
48.422020
20
189.878028
11
50.338900
21
190.267000
0
LINE
8
0
10
40.338900
20
225.267000
11
41.025321
21
226.785481
0
LINE
8
0
10
41.025321
20
226.785481
11
41.255434
21
228.341188
0
LINE
8
0
10
41.255434
20
228.341188
11
41.070047
21
229.860245
0
LINE
8
0
10
41.070047
20
229.860245
11
40.509969
21
231.268772
0
LINE
8
0
10
40.509969
20
231.268772
11
39.616008
21
232.492895
0
LINE
8
0
10
39.616008
20
232.492895
11
38.428973
21
233.458735
0
LINE
8
0
10
38.428973
20
233.458735
11
36.989670
21
234.092416
0
LINE
8
0
10
36.989670
20
234.092416
11
35.338910
21
234.320060
0
LINE
8
0
10
35.338910
20
234.320060
11
33.688149
21
234.092416
0
LINE
8
0
10
33.688149
20
234.092416
11
32.248847
21
233.458734
0
LINE
8
0
10
32.248847
20
233.458734
11
31.061811
21
232.492892
0
LINE
8
0
10
31.061811
20
232.492892
11
30.167850
21
231.268769
0
LINE
8
0
10
30.167850
20
231.268769
11
29.607772
21
229.860240
0
LINE
8
0
10
29.607772
20
229.860240
11
29.422386
21
228.341184
0
LINE
8
0
10
29.422386
20
228.341184
11
29.652499
21
226.785478
0
LINE
8
0
10
29.652499
20
226.785478
11
30.338920
21
225.267000
0
LINE
8
0
10
50.338900
20
260.267000
11
48.710563
21
260.252903
0
LINE
8
0
10
48.710563
20
260.252903
11
47.175674
21
259.905891
0
LINE
8
0
10
47.175674
20
259.905891
11
45.772349
21
259.260507
0
LINE
8
0
10
45.772349
20
259.260507
11
44.538704
21
258.351295
0
LINE
8
0
10
44.538704
20
258.351295
11
43.512853
21
257.212796
0
LINE
8
0
10
43.512853
20
257.212796
11
42.732911
21
255.879553
0
LINE
8
0
10
42.732911
20
255.879553
11
42.236995
21
254.386110
0
LINE
8
0
10
42.236995
20
254.386110
11
42.063220
21
252.767010
0
LINE
8
0
10
42.063220
20
252.767010
11
42.236995
21
251.147913
0
LINE
8
0
10
42.236995
20
251.147913
11
42.732910
21
249.654472
0
LINE
8
0
10
42.732910
20
249.654472
11
43.512850
21
248.321231
0
LINE
8
0
10
43.512850
20
248.321231
11
44.538700
21
247.182732
0
LINE
8
0
10
44.538700
20
247.182732
11
45.772345
21
246.273519
0
LINE
8
0
10
45.772345
20
246.273519
11
47.175670
21
245.628134
0
LINE
8
0
10
47.175670
20
245.628134
11
48.710560
21
245.281120
0
LINE
8
0
10
48.710560
20
245.281120
11
50.338900
21
245.267020
0
LINE
8
0
10
60.338900
20
225.267000
11
59.591713
21
224.397307
0
LINE
8
0
10
59.591713
20
224.397307
11
59.016350
21
223.469314
0
LINE
8
0
10
59.016350
20
223.469314
11
58.606269
21
222.498806
0
LINE
8
0
10
58.606269
20
222.498806
11
58.354927
21
221.501572
0
LINE
8
0
10
58.354927
20
221.501572
11
58.302288
21
219.490066
0
LINE
8
0
10
58.302288
20
219.490066
11
58.806093
21
217.561089
0
LINE
8
0
10
58.806093
20
217.561089
11
59.813997
21
215.840932
0
LINE
8
0
10
59.813997
20
215.840932
11
61.273660
21
214.455886
0
LINE
8
0
10
61.273660
20
214.455886
11
62.156543
21
213.928497
0
LINE
8
0
10
62.156543
20
213.928497
11
63.132738
21
213.532245
0
LINE
8
0
10
63.132738
20
213.532245
11
64.195701
21
213.282917
0
LINE
8
0
10
64.195701
20
213.282917
11
65.338890
21
213.196300
0
LINE
8
0
10
65.338890
20
213.196300
11
66.395827
21
213.275478
0
LINE
8
0
10
66.395827
20
213.275478
11
67.412276
21
213.506740
0
LINE
8
0
10
67.412276
20
213.506740
11
68.374146
21
213.880676
0
LINE
8
0
10
68.374146
20
213.880676
11
69.267349
21
214.387874
0
LINE
8
0
10
69.267349
20
214.387874
11
70.077794
21
215.018925
0
LINE
8
0
10
70.077794
20
215.018925
11
70.791392
21
215.764418
0
LINE
8
0
10
70.791392
20
215.764418
11
71.394054
21
216.614943
0
LINE
8
0
10
71.394054
20
216.614943
11
71.871690
21
217.561090
0
LINE
8
0
10
71.871690
20
217.561090
11
72.203006
21
218.567855
0
LINE
8
0
10
72.203006
20
218.567855
11
72.378305
21
219.595425
0
LINE
8
0
10
72.378305
20
219.595425
11
72.400893
21
220.627180
0
LINE
8
0
10
72.400893
20
220.627180
11
72.274076
21
221.646500
0
LINE
8
0
10
72.274076
20
221.646500
11
72.001161
21
222.636763
0
LINE
8
0
10
72.001161
20
222.636763
11
71.585452
21
223.581347
0
LINE
8
0
10
71.585452
20
223.581347
11
71.030257
21
224.463634
0
LINE
8
0
10
71.030257
20
224.463634
11
70.338880
21
225.267000
0
LINE
8
0
10
50.338900
20
175.266000
11
50.338900
21
190.268000
0
LINE
8
0
10
50.338900
20
205.267000
11
50.338900
21
225.267000
0
LINE
8
0
10
50.338900
20
225.267000
11
60.338900
21
225.267000
0
LINE
8
0
10
70.338900
20
225.267000
11
80.338900
21
225.267000
0
LINE
8
0
10
50.338900
20
275.267000
11
50.338900
21
260.267000
0
LINE
8
0
10
50.338900
20
245.267000
11
50.338900
21
225.267000
0
LINE
8
0
10
20.338900
20
225.267000
11
30.338900
21
225.267000
0
LINE
8
0
10
40.338900
20
225.267000
11
50.338900
21
225.267000
0
LINE
8
0
10
80.338900
20
175.267000
11
20.339000
21
175.267000
0
LINE
8
0
10
20.339000
20
175.267000
11
20.339000
21
275.267000
0
LINE
8
0
10
20.339000
20
275.267000
11
80.338900
21
275.267000
0
LINE
8
0
10
80.338900
20
275.267000
11
80.338900
21
175.267000
0
LINE
8
0
10
50.338900
20
205.267000
11
48.422014
21
205.655972
0
LINE
8
0
10
48.422014
20
205.655972
11
46.553363
21
205.573821
0
LINE
8
0
10
46.553363
20
205.573821
11
44.796855
21
205.066612
0
LINE
8
0
10
44.796855
20
205.066612
11
43.216400
21
204.180411
0
LINE
8
0
10
43.216400
20
204.180411
11
41.875908
21
202.961284
0
LINE
8
0
10
41.875908
20
202.961284
11
40.839288
21
201.455296
0
LINE
8
0
10
40.839288
20
201.455296
11
40.170448
21
199.708513
0
LINE
8
0
10
40.170448
20
199.708513
11
39.933300
21
197.767000
0
LINE
8
0
10
39.933300
20
197.767000
11
40.170449
21
195.825487
0
LINE
8
0
10
40.170449
20
195.825487
11
40.839290
21
194.078704
0
LINE
8
0
10
40.839290
20
194.078704
11
41.875913
21
192.572716
0
LINE
8
0
10
41.875913
20
192.572716
11
43.216408
21
191.353589
0
LINE
8
0
10
43.216408
20
191.353589
11
44.796863
21
190.467388
0
LINE
8
0
10
44.796863
20
190.467388
11
46.553371
21
189.960179
0
LINE
8
0
10
46.553371
20
189.960179
11
48.422020
21
189.878028
0
LINE
8
0
10
48.422020
20
189.878028
11
50.338900
21
190.267000
0
LINE
8
0
10
40.338900
20
225.267000
11
41.025321
21
226.785481
0
LINE
8
0
10
41.025321
20
226.785481
11
41.255434
21
228.341188
0
LINE
8
0
10
41.255434
20
228.341188
11
41.070047
21
229.860245
0
LINE
8
0
10
41.070047
20
229.860245
11
40.509969
21
231.268772
0
LINE
8
0
10
40.509969
20
231.268772
11
39.616008
21
232.492895
0
LINE
8
0
10
39.616008
20
232.492895
11
38.428973
21
233.458735
0
LINE
8
0
10
38.428973
20
233.458735
11
36.989670
21
234.092416
0
LINE
8
0
10
36.989670
20
234.092416
11
35.338910
21
234.320060
0
LINE
8
0
10
35.338910
20
234.320060
11
33.688149
21
234.092416
0
LINE
8
0
10
33.688149
20
234.092416
11
32.248847
21
233.458734
0
LINE
8
0
10
32.248847
20
233.458734
11
31.061811
21
232.492892
0
LINE
8
0
10
31.061811
20
232.492892
11
30.167850
21
231.268769
0
LINE
8
0
10
30.167850
20
231.268769
11
29.607772
21
229.860240
0
LINE
8
0
10
29.607772
20
229.860240
11
29.422386
21
228.341184
0
LINE
8
0
10
29.422386
20
228.341184
11
29.652499
21
226.785478
0
LINE
8
0
10
29.652499
20
226.785478
11
30.338920
21
225.267000
0
LINE
8
0
10
50.338900
20
260.267000
11
48.710563
21
260.252903
0
LINE
8
0
10
48.710563
20
260.252903
11
47.175674
21
259.905891
0
LINE
8
0
10
47.175674
20
259.905891
11
45.772349
21
259.260507
0
LINE
8
0
10
45.772349
20
259.260507
11
44.538704
21
258.351295
0
LINE
8
0
10
44.538704
20
258.351295
11
43.512853
21
257.212796
0
LINE
8
0
10
43.512853
20
257.212796
11
42.732911
21
255.879553
0
LINE
8
0
10
42.732911
20
255.879553
11
42.236995
21
254.386110
0
LINE
8
0
10
42.236995
20
254.386110
11
42.063220
21
252.767010
0
LINE
8
0
10
42.063220
20
252.767010
11
42.236995
21
251.147913
0
LINE
8
0
10
42.236995
20
251.147913
11
42.732910
21
249.654472
0
LINE
8
0
10
42.732910
20
249.654472
11
43.512850
21
248.321231
0
LINE
8
0
10
43.512850
20
248.321231
11
44.538700
21
247.182732
0
LINE
8
0
10
44.538700
20
247.182732
11
45.772345
21
246.273519
0
LINE
8
0
10
45.772345
20
246.273519
11
47.175670
21
245.628134
0
LINE
8
0
10
47.175670
20
245.628134
11
48.710560
21
245.281120
0
LINE
8
0
10
48.710560
20
245.281120
11
50.338900
21
245.267020
0
LINE
8
0
10
60.338900
20
225.267000
11
59.591713
21
224.397307
0
LINE
8
0
10
59.591713
20
224.397307
11
59.016350
21
223.469314
0
LINE
8
0
10
59.016350
20
223.469314
11
58.606269
21
222.498806
0
LINE
8
0
10
58.606269
20
222.498806
11
58.354927
21
221.501572
0
LINE
8
0
10
58.354927
20
221.501572
11
58.302288
21
219.490066
0
LINE
8
0
10
58.302288
20
219.490066
11
58.806093
21
217.561089
0
LINE
8
0
10
58.806093
20
217.561089
11
59.813997
21
215.840932
0
LINE
8
0
10
59.813997
20
215.840932
11
61.273660
21
214.455886
0
LINE
8
0
10
61.273660
20
214.455886
11
62.156543
21
213.928497
0
LINE
8
0
10
62.156543
20
213.928497
11
63.132738
21
213.532245
0
LINE
8
0
10
63.132738
20
213.532245
11
64.195701
21
213.282917
0
LINE
8
0
10
64.195701
20
213.282917
11
65.338890
21
213.196300
0
LINE
8
0
10
65.338890
20
213.196300
11
66.395827
21
213.275478
0
LINE
8
0
10
66.395827
20
213.275478
11
67.412276
21
213.506740
0
LINE
8
0
10
67.412276
20
213.506740
11
68.374146
21
213.880676
0
LINE
8
0
10
68.374146
20
213.880676
11
69.267349
21
214.387874
0
LINE
8
0
10
69.267349
20
214.387874
11
70.077794
21
215.018925
0
LINE
8
0
10
70.077794
20
215.018925
11
70.791392
21
215.764418
0
LINE
8
0
10
70.791392
20
215.764418
11
71.394054
21
216.614943
0
LINE
8
0
10
71.394054
20
216.614943
11
71.871690
21
217.561090
0
LINE
8
0
10
71.871690
20
217.561090
11
72.203006
21
218.567855
0
LINE
8
0
10
72.203006
20
218.567855
11
72.378305
21
219.595425
0
LINE
8
0
10
72.378305
20
219.595425
11
72.400893
21
220.627180
0
LINE
8
0
10
72.400893
20
220.627180
11
72.274076
21
221.646500
0
LINE
8
0
10
72.274076
20
221.646500
11
72.001161
21
222.636763
0
LINE
8
0
10
72.001161
20
222.636763
11
71.585452
21
223.581347
0
LINE
8
0
10
71.585452
20
223.581347
11
71.030257
21
224.463634
0
LINE
8
0
10
71.030257
20
224.463634
11
70.338880
21
225.267000
0
LINE
8
0
10
50.338900
20
175.266000
11
50.338900
21
190.268000
0
LINE
8
0
10
50.338900
20
205.267000
11
50.338900
21
225.267000
0
LINE
8
0
10
50.338900
20
225.267000
11
60.338900
21
225.267000
0
LINE
8
0
10
70.338900
20
225.267000
11
80.338900
21
225.267000
0
LINE
8
0
10
50.338900
20
275.267000
11
50.338900
21
260.267000
0
LINE
8
0
10
50.338900
20
245.267000
11
50.338900
21
225.267000
0
LINE
8
0
10
20.338900
20
225.267000
11
30.338900
21
225.267000
0
LINE
8
0
10
40.338900
20
225.267000
11
50.338900
21
225.267000
0
LINE
8
0
10
196.225000
20
170.944000
11
136.225000
21
170.944000
0
LINE
8
0
10
136.225000
20
170.944000
11
136.225000
21
270.944000
0
LINE
8
0
10
136.225000
20
270.944000
11
196.225000
21
270.944000
0
LINE
8
0
10
196.225000
20
270.944000
11
196.225000
21
170.944000
0
LINE
8
0
10
166.225000
20
200.944000
11
164.308114
21
201.332975
0
LINE
8
0
10
164.308114
20
201.332975
11
162.439462
21
201.250825
0
LINE
8
0
10
162.439462
20
201.250825
11
160.682955
21
200.743616
0
LINE
8
0
10
160.682955
20
200.743616
11
159.102500
21
199.857415
0
LINE
8
0
10
159.102500
20
199.857415
11
157.762008
21
198.638287
0
LINE
8
0
10
157.762008
20
198.638287
11
156.725388
21
197.132297
0
LINE
8
0
10
156.725388
20
197.132297
11
156.056548
21
195.385513
0
LINE
8
0
10
156.056548
20
195.385513
11
155.819400
21
193.444000
0
LINE
8
0
10
155.819400
20
193.444000
11
156.056549
21
191.502487
0
LINE
8
0
10
156.056549
20
191.502487
11
156.725390
21
189.755704
0
LINE
8
0
10
156.725390
20
189.755704
11
157.762013
21
188.249716
0
LINE
8
0
10
157.762013
20
188.249716
11
159.102508
21
187.030589
0
LINE
8
0
10
159.102508
20
187.030589
11
160.682963
21
186.144388
0
LINE
8
0
10
160.682963
20
186.144388
11
162.439471
21
185.637179
0
LINE
8
0
10
162.439471
20
185.637179
11
164.308120
21
185.555028
0
LINE
8
0
10
164.308120
20
185.555028
11
166.225000
21
185.944000
0
LINE
8
0
10
156.225000
20
220.944000
11
156.911421
21
222.462478
0
LINE
8
0
10
156.911421
20
222.462478
11
157.141534
21
224.018184
0
LINE
8
0
10
157.141534
20
224.018184
11
156.956147
21
225.537240
0
LINE
8
0
10
156.956147
20
225.537240
11
156.396069
21
226.945769
0
LINE
8
0
10
156.396069
20
226.945769
11
155.502108
21
228.169892
0
LINE
8
0
10
155.502108
20
228.169892
11
154.315073
21
229.135734
0
LINE
8
0
10
154.315073
20
229.135734
11
152.875770
21
229.769416
0
LINE
8
0
10
152.875770
20
229.769416
11
151.225010
21
229.997060
0
LINE
8
0
10
151.225010
20
229.997060
11
149.574249
21
229.769416
0
LINE
8
0
10
149.574249
20
229.769416
11
148.134947
21
229.135734
0
LINE
8
0
10
148.134947
20
229.135734
11
146.947911
21
228.169892
0
LINE
8
0
10
146.947911
20
228.169892
11
146.053950
21
226.945769
0
LINE
8
0
10
146.053950
20
226.945769
11
145.493872
21
225.537240
0
LINE
8
0
10
145.493872
20
225.537240
11
145.308486
21
224.018184
0
LINE
8
0
10
145.308486
20
224.018184
11
145.538599
21
222.462478
0
LINE
8
0
10
145.538599
20
222.462478
11
146.225020
21
220.944000
0
LINE
8
0
10
166.225000
20
255.944000
11
164.596663
21
255.929903
0
LINE
8
0
10
164.596663
20
255.929903
11
163.061774
21
255.582891
0
LINE
8
0
10
163.061774
20
255.582891
11
161.658449
21
254.937507
0
LINE
8
0
10
161.658449
20
254.937507
11
160.424804
21
254.028295
0
LINE
8
0
10
160.424804
20
254.028295
11
159.398953
21
252.889796
0
LINE
8
0
10
159.398953
20
252.889796
11
158.619011
21
251.556553
0
LINE
8
0
10
158.619011
20
251.556553
11
158.123095
21
250.063110
0
LINE
8
0
10
158.123095
20
250.063110
11
157.949320
21
248.444010
0
LINE
8
0
10
157.949320
20
248.444010
11
158.123095
21
246.824913
0
LINE
8
0
10
158.123095
20
246.824913
11
158.619010
21
245.331472
0
LINE
8
0
10
158.619010
20
245.331472
11
159.398950
21
243.998231
0
LINE
8
0
10
159.398950
20
243.998231
11
160.424800
21
242.859733
0
LINE
8
0
10
160.424800
20
242.859733
11
161.658445
21
241.950519
0
LINE
8
0
10
161.658445
20
241.950519
11
163.061770
21
241.305134
0
LINE
8
0
10
163.061770
20
241.305134
11
164.596660
21
240.958120
0
LINE
8
0
10
164.596660
20
240.958120
11
166.225000
21
240.944020
0
LINE
8
0
10
176.225000
20
220.944000
11
175.477813
21
220.074307
0
LINE
8
0
10
175.477813
20
220.074307
11
174.902450
21
219.146314
0
LINE
8
0
10
174.902450
20
219.146314
11
174.492369
21
218.175806
0
LINE
8
0
10
174.492369
20
218.175806
11
174.241027
21
217.178572
0
LINE
8
0
10
174.241027
20
217.178572
11
174.188388
21
215.167066
0
LINE
8
0
10
174.188388
20
215.167066
11
174.692193
21
213.238089
0
LINE
8
0
10
174.692193
20
213.238089
11
175.700097
21
211.517932
0
LINE
8
0
10
175.700097
20
211.517932
11
177.159760
21
210.132886
0
LINE
8
0
10
177.159760
20
210.132886
11
178.042643
21
209.605497
0
LINE
8
0
10
178.042643
20
209.605497
11
179.018838
21
209.209245
0
LINE
8
0
10
179.018838
20
209.209245
11
180.081801
21
208.959917
0
LINE
8
0
10
180.081801
20
208.959917
11
181.224990
21
208.873300
0
LINE
8
0
10
181.224990
20
208.873300
11
182.281927
21
208.952478
0
LINE
8
0
10
182.281927
20
208.952478
11
183.298376
21
209.183740
0
LINE
8
0
10
183.298376
20
209.183740
11
184.260246
21
209.557676
0
LINE
8
0
10
184.260246
20
209.557676
11
185.153449
21
210.064874
0
LINE
8
0
10
185.153449
20
210.064874
11
185.963894
21
210.695925
0
LINE
8
0
10
185.963894
20
210.695925
11
186.677492
21
211.441418
0
LINE
8
0
10
186.677492
20
211.441418
11
187.280154
21
212.291943
0
LINE
8
0
10
187.280154
20
212.291943
11
187.757790
21
213.238090
0
LINE
8
0
10
187.757790
20
213.238090
11
188.089106
21
214.244855
0
LINE
8
0
10
188.089106
20
214.244855
11
188.264405
21
215.272425
0
LINE
8
0
10
188.264405
20
215.272425
11
188.286993
21
216.304180
0
LINE
8
0
10
188.286993
20
216.304180
11
188.160176
21
217.323500
0
LINE
8
0
10
188.160176
20
217.323500
11
187.887261
21
218.313763
0
LINE
8
0
10
187.887261
20
218.313763
11
187.471552
21
219.258347
0
LINE
8
0
10
187.471552
20
219.258347
11
186.916357
21
220.140634
0
LINE
8
0
10
186.916357
20
220.140634
11
186.224980
21
220.944000
0
LINE
8
0
10
166.225000
20
170.943000
11
166.225000
21
185.945000
0
LINE
8
0
10
166.225000
20
200.944000
11
166.225000
21
220.944000
0
LINE
8
0
10
166.225000
20
220.944000
11
176.225000
21
220.944000
0
LINE
8
0
10
186.225000
20
220.944000
11
196.225000
21
220.944000
0
LINE
8
0
10
166.225000
20
270.944000
11
166.225000
21
255.944000
0
LINE
8
0
10
166.225000
20
240.944000
11
166.225000
21
220.944000
0
LINE
8
0
10
136.225000
20
220.944000
11
146.225000
21
220.944000
0
LINE
8
0
10
156.225000
20
220.944000
11
166.225000
21
220.944000
0
LINE
8
0
10
196.225000
20
170.944000
11
136.225000
21
170.944000
0
LINE
8
0
10
136.225000
20
170.944000
11
136.225000
21
270.944000
0
LINE
8
0
10
136.225000
20
270.944000
11
196.225000
21
270.944000
0
LINE
8
0
10
196.225000
20
270.944000
11
196.225000
21
170.944000
0
LINE
8
0
10
166.225000
20
200.944000
11
164.308114
21
201.332975
0
LINE
8
0
10
164.308114
20
201.332975
11
162.439462
21
201.250825
0
LINE
8
0
10
162.439462
20
201.250825
11
160.682955
21
200.743616
0
LINE
8
0
10
160.682955
20
200.743616
11
159.102500
21
199.857415
0
LINE
8
0
10
159.102500
20
199.857415
11
157.762008
21
198.638287
0
LINE
8
0
10
157.762008
20
198.638287
11
156.725388
21
197.132297
0
LINE
8
0
10
156.725388
20
197.132297
11
156.056548
21
195.385513
0
LINE
8
0
10
156.056548
20
195.385513
11
155.819400
21
193.444000
0
LINE
8
0
10
155.819400
20
193.444000
11
156.056549
21
191.502487
0
LINE
8
0
10
156.056549
20
191.502487
11
156.725390
21
189.755704
0
LINE
8
0
10
156.725390
20
189.755704
11
157.762013
21
188.249716
0
LINE
8
0
10
157.762013
20
188.249716
11
159.102508
21
187.030589
0
LINE
8
0
10
159.102508
20
187.030589
11
160.682963
21
186.144388
0
LINE
8
0
10
160.682963
20
186.144388
11
162.439471
21
185.637179
0
LINE
8
0
10
162.439471
20
185.637179
11
164.308120
21
185.555028
0
LINE
8
0
10
164.308120
20
185.555028
11
166.225000
21
185.944000
0
LINE
8
0
10
156.225000
20
220.944000
11
156.911421
21
222.462478
0
LINE
8
0
10
156.911421
20
222.462478
11
157.141534
21
224.018184
0
LINE
8
0
10
157.141534
20
224.018184
11
156.956147
21
225.537240
0
LINE
8
0
10
156.956147
20
225.537240
11
156.396069
21
226.945769
0
LINE
8
0
10
156.396069
20
226.945769
11
155.502108
21
228.169892
0
LINE
8
0
10
155.502108
20
228.169892
11
154.315073
21
229.135734
0
LINE
8
0
10
154.315073
20
229.135734
11
152.875770
21
229.769416
0
LINE
8
0
10
152.875770
20
229.769416
11
151.225010
21
229.997060
0
LINE
8
0
10
151.225010
20
229.997060
11
149.574249
21
229.769416
0
LINE
8
0
10
149.574249
20
229.769416
11
148.134947
21
229.135734
0
LINE
8
0
10
148.134947
20
229.135734
11
146.947911
21
228.169892
0
LINE
8
0
10
146.947911
20
228.169892
11
146.053950
21
226.945769
0
LINE
8
0
10
146.053950
20
226.945769
11
145.493872
21
225.537240
0
LINE
8
0
10
145.493872
20
225.537240
11
145.308486
21
224.018184
0
LINE
8
0
10
145.308486
20
224.018184
11
145.538599
21
222.462478
0
LINE
8
0
10
145.538599
20
222.462478
11
146.225020
21
220.944000
0
LINE
8
0
10
166.225000
20
255.944000
11
164.596663
21
255.929903
0
LINE
8
0
10
164.596663
20
255.929903
11
163.061774
21
255.582891
0
LINE
8
0
10
163.061774
20
255.582891
11
161.658449
21
254.937507
0
LINE
8
0
10
161.658449
20
254.937507
11
160.424804
21
254.028295
0
LINE
8
0
10
160.424804
20
254.028295
11
159.398953
21
252.889796
0
LINE
8
0
10
159.398953
20
252.889796
11
158.619011
21
251.556553
0
LINE
8
0
10
158.619011
20
251.556553
11
158.123095
21
250.063110
0
LINE
8
0
10
158.123095
20
250.063110
11
157.949320
21
248.444010
0
LINE
8
0
10
157.949320
20
248.444010
11
158.123095
21
246.824913
0
LINE
8
0
10
158.123095
20
246.824913
11
158.619010
21
245.331472
0
LINE
8
0
10
158.619010
20
245.331472
11
159.398950
21
243.998231
0
LINE
8
0
10
159.398950
20
243.998231
11
160.424800
21
242.859733
0
LINE
8
0
10
160.424800
20
242.859733
11
161.658445
21
241.950519
0
LINE
8
0
10
161.658445
20
241.950519
11
163.061770
21
241.305134
0
LINE
8
0
10
163.061770
20
241.305134
11
164.596660
21
240.958120
0
LINE
8
0
10
164.596660
20
240.958120
11
166.225000
21
240.944020
0
LINE
8
0
10
176.225000
20
220.944000
11
175.477813
21
220.074307
0
LINE
8
0
10
175.477813
20
220.074307
11
174.902450
21
219.146314
0
LINE
8
0
10
174.902450
20
219.146314
11
174.492369
21
218.175806
0
LINE
8
0
10
174.492369
20
218.175806
11
174.241027
21
217.178572
0
LINE
8
0
10
174.241027
20
217.178572
11
174.188388
21
215.167066
0
LINE
8
0
10
174.188388
20
215.167066
11
174.692193
21
213.238089
0
LINE
8
0
10
174.692193
20
213.238089
11
175.700097
21
211.517932
0
LINE
8
0
10
175.700097
20
211.517932
11
177.159760
21
210.132886
0
LINE
8
0
10
177.159760
20
210.132886
11
178.042643
21
209.605497
0
LINE
8
0
10
178.042643
20
209.605497
11
179.018838
21
209.209245
0
LINE
8
0
10
179.018838
20
209.209245
11
180.081801
21
208.959917
0
LINE
8
0
10
180.081801
20
208.959917
11
181.224990
21
208.873300
0
LINE
8
0
10
181.224990
20
208.873300
11
182.281927
21
208.952478
0
LINE
8
0
10
182.281927
20
208.952478
11
183.298376
21
209.183740
0
LINE
8
0
10
183.298376
20
209.183740
11
184.260246
21
209.557676
0
LINE
8
0
10
184.260246
20
209.557676
11
185.153449
21
210.064874
0
LINE
8
0
10
185.153449
20
210.064874
11
185.963894
21
210.695925
0
LINE
8
0
10
185.963894
20
210.695925
11
186.677492
21
211.441418
0
LINE
8
0
10
186.677492
20
211.441418
11
187.280154
21
212.291943
0
LINE
8
0
10
187.280154
20
212.291943
11
187.757790
21
213.238090
0
LINE
8
0
10
187.757790
20
213.238090
11
188.089106
21
214.244855
0
LINE
8
0
10
188.089106
20
214.244855
11
188.264405
21
215.272425
0
LINE
8
0
10
188.264405
20
215.272425
11
188.286993
21
216.304180
0
LINE
8
0
10
188.286993
20
216.304180
11
188.160176
21
217.323500
0
LINE
8
0
10
188.160176
20
217.323500
11
187.887261
21
218.313763
0
LINE
8
0
10
187.887261
20
218.313763
11
187.471552
21
219.258347
0
LINE
8
0
10
187.471552
20
219.258347
11
186.916357
21
220.140634
0
LINE
8
0
10
186.916357
20
220.140634
11
186.224980
21
220.944000
0
LINE
8
0
10
166.225000
20
170.943000
11
166.225000
21
185.945000
0
LINE
8
0
10
166.225000
20
200.944000
11
166.225000
21
220.944000
0
LINE
8
0
10
166.225000
20
220.944000
11
176.225000
21
220.944000
0
LINE
8
0
10
186.225000
20
220.944000
11
196.225000
21
220.944000
0
LINE
8
0
10
166.225000
20
270.944000
11
166.225000
21
255.944000
0
LINE
8
0
10
166.225000
20
240.944000
11
166.225000
21
220.944000
0
LINE
8
0
10
136.225000
20
220.944000
11
146.225000
21
220.944000
0
LINE
8
0
10
156.225000
20
220.944000
11
166.225000
21
220.944000
0
LINE
8
0
10
196.225000
20
170.944000
11
136.225000
21
170.944000
0
LINE
8
0
10
136.225000
20
170.944000
11
136.225000
21
270.944000
0
LINE
8
0
10
136.225000
20
270.944000
11
196.225000
21
270.944000
0
LINE
8
0
10
196.225000
20
270.944000
11
196.225000
21
170.944000
0
LINE
8
0
10
166.225000
20
200.944000
11
164.308114
21
201.332975
0
LINE
8
0
10
164.308114
20
201.332975
11
162.439462
21
201.250825
0
LINE
8
0
10
162.439462
20
201.250825
11
160.682955
21
200.743616
0
LINE
8
0
10
160.682955
20
200.743616
11
159.102500
21
199.857415
0
LINE
8
0
10
159.102500
20
199.857415
11
157.762008
21
198.638287
0
LINE
8
0
10
157.762008
20
198.638287
11
156.725388
21
197.132297
0
LINE
8
0
10
156.725388
20
197.132297
11
156.056548
21
195.385513
0
LINE
8
0
10
156.056548
20
195.385513
11
155.819400
21
193.444000
0
LINE
8
0
10
155.819400
20
193.444000
11
156.056549
21
191.502487
0
LINE
8
0
10
156.056549
20
191.502487
11
156.725390
21
189.755704
0
LINE
8
0
10
156.725390
20
189.755704
11
157.762013
21
188.249716
0
LINE
8
0
10
157.762013
20
188.249716
11
159.102508
21
187.030589
0
LINE
8
0
10
159.102508
20
187.030589
11
160.682963
21
186.144388
0
LINE
8
0
10
160.682963
20
186.144388
11
162.439471
21
185.637179
0
LINE
8
0
10
162.439471
20
185.637179
11
164.308120
21
185.555028
0
LINE
8
0
10
164.308120
20
185.555028
11
166.225000
21
185.944000
0
LINE
8
0
10
156.225000
20
220.944000
11
156.911421
21
222.462478
0
LINE
8
0
10
156.911421
20
222.462478
11
157.141534
21
224.018184
0
LINE
8
0
10
157.141534
20
224.018184
11
156.956147
21
225.537240
0
LINE
8
0
10
156.956147
20
225.537240
11
156.396069
21
226.945769
0
LINE
8
0
10
156.396069
20
226.945769
11
155.502108
21
228.169892
0
LINE
8
0
10
155.502108
20
228.169892
11
154.315073
21
229.135734
0
LINE
8
0
10
154.315073
20
229.135734
11
152.875770
21
229.769416
0
LINE
8
0
10
152.875770
20
229.769416
11
151.225010
21
229.997060
0
LINE
8
0
10
151.225010
20
229.997060
11
149.574249
21
229.769416
0
LINE
8
0
10
149.574249
20
229.769416
11
148.134947
21
229.135734
0
LINE
8
0
10
148.134947
20
229.135734
11
146.947911
21
228.169892
0
LINE
8
0
10
146.947911
20
228.169892
11
146.053950
21
226.945769
0
LINE
8
0
10
146.053950
20
226.945769
11
145.493872
21
225.537240
0
LINE
8
0
10
145.493872
20
225.537240
11
145.308486
21
224.018184
0
LINE
8
0
10
145.308486
20
224.018184
11
145.538599
21
222.462478
0
LINE
8
0
10
145.538599
20
222.462478
11
146.225020
21
220.944000
0
LINE
8
0
10
166.225000
20
255.944000
11
164.596663
21
255.929903
0
LINE
8
0
10
164.596663
20
255.929903
11
163.061774
21
255.582891
0
LINE
8
0
10
163.061774
20
255.582891
11
161.658449
21
254.937507
0
LINE
8
0
10
161.658449
20
254.937507
11
160.424804
21
254.028295
0
LINE
8
0
10
160.424804
20
254.028295
11
159.398953
21
252.889796
0
LINE
8
0
10
159.398953
20
252.889796
11
158.619011
21
251.556553
0
LINE
8
0
10
158.619011
20
251.556553
11
158.123095
21
250.063110
0
LINE
8
0
10
158.123095
20
250.063110
11
157.949320
21
248.444010
0
LINE
8
0
10
157.949320
20
248.444010
11
158.123095
21
246.824913
0
LINE
8
0
10
158.123095
20
246.824913
11
158.619010
21
245.331472
0
LINE
8
0
10
158.619010
20
245.331472
11
159.398950
21
243.998231
0
LINE
8
0
10
159.398950
20
243.998231
11
160.424800
21
242.859733
0
LINE
8
0
10
160.424800
20
242.859733
11
161.658445
21
241.950519
0
LINE
8
0
10
161.658445
20
241.950519
11
163.061770
21
241.305134
0
LINE
8
0
10
163.061770
20
241.305134
11
164.596660
21
240.958120
0
LINE
8
0
10
164.596660
20
240.958120
11
166.225000
21
240.944020
0
LINE
8
0
10
176.225000
20
220.944000
11
175.477813
21
220.074307
0
LINE
8
0
10
175.477813
20
220.074307
11
174.902450
21
219.146314
0
LINE
8
0
10
174.902450
20
219.146314
11
174.492369
21
218.175806
0
LINE
8
0
10
174.492369
20
218.175806
11
174.241027
21
217.178572
0
LINE
8
0
10
174.241027
20
217.178572
11
174.188388
21
215.167066
0
LINE
8
0
10
174.188388
20
215.167066
11
174.692193
21
213.238089
0
LINE
8
0
10
174.692193
20
213.238089
11
175.700097
21
211.517932
0
LINE
8
0
10
175.700097
20
211.517932
11
177.159760
21
210.132886
0
LINE
8
0
10
177.159760
20
210.132886
11
178.042643
21
209.605497
0
LINE
8
0
10
178.042643
20
209.605497
11
179.018838
21
209.209245
0
LINE
8
0
10
179.018838
20
209.209245
11
180.081801
21
208.959917
0
LINE
8
0
10
180.081801
20
208.959917
11
181.224990
21
208.873300
0
LINE
8
0
10
181.224990
20
208.873300
11
182.281927
21
208.952478
0
LINE
8
0
10
182.281927
20
208.952478
11
183.298376
21
209.183740
0
LINE
8
0
10
183.298376
20
209.183740
11
184.260246
21
209.557676
0
LINE
8
0
10
184.260246
20
209.557676
11
185.153449
21
210.064874
0
LINE
8
0
10
185.153449
20
210.064874
11
185.963894
21
210.695925
0
LINE
8
0
10
185.963894
20
210.695925
11
186.677492
21
211.441418
0
LINE
8
0
10
186.677492
20
211.441418
11
187.280154
21
212.291943
0
LINE
8
0
10
187.280154
20
212.291943
11
187.757790
21
213.238090
0
LINE
8
0
10
187.757790
20
213.238090
11
188.089106
21
214.244855
0
LINE
8
0
10
188.089106
20
214.244855
11
188.264405
21
215.272425
0
LINE
8
0
10
188.264405
20
215.272425
11
188.286993
21
216.304180
0
LINE
8
0
10
188.286993
20
216.304180
11
188.160176
21
217.323500
0
LINE
8
0
10
188.160176
20
217.323500
11
187.887261
21
218.313763
0
LINE
8
0
10
187.887261
20
218.313763
11
187.471552
21
219.258347
0
LINE
8
0
10
187.471552
20
219.258347
11
186.916357
21
220.140634
0
LINE
8
0
10
186.916357
20
220.140634
11
186.224980
21
220.944000
0
LINE
8
0
10
166.225000
20
170.943000
11
166.225000
21
185.945000
0
LINE
8
0
10
166.225000
20
200.944000
11
166.225000
21
220.944000
0
LINE
8
0
10
166.225000
20
220.944000
11
176.225000
21
220.944000
0
LINE
8
0
10
186.225000
20
220.944000
11
196.225000
21
220.944000
0
LINE
8
0
10
166.225000
20
270.944000
11
166.225000
21
255.944000
0
LINE
8
0
10
166.225000
20
240.944000
11
166.225000
21
220.944000
0
LINE
8
0
10
136.225000
20
220.944000
11
146.225000
21
220.944000
0
LINE
8
0
10
156.225000
20
220.944000
11
166.225000
21
220.944000
0
LINE
8
0
10
196.225000
20
170.944000
11
136.225000
21
170.944000
0
LINE
8
0
10
136.225000
20
170.944000
11
136.225000
21
270.944000
0
LINE
8
0
10
136.225000
20
270.944000
11
196.225000
21
270.944000
0
LINE
8
0
10
196.225000
20
270.944000
11
196.225000
21
170.944000
0
LINE
8
0
10
166.225000
20
200.944000
11
164.308114
21
201.332975
0
LINE
8
0
10
164.308114
20
201.332975
11
162.439462
21
201.250825
0
LINE
8
0
10
162.439462
20
201.250825
11
160.682955
21
200.743616
0
LINE
8
0
10
160.682955
20
200.743616
11
159.102500
21
199.857415
0
LINE
8
0
10
159.102500
20
199.857415
11
157.762008
21
198.638287
0
LINE
8
0
10
157.762008
20
198.638287
11
156.725388
21
197.132297
0
LINE
8
0
10
156.725388
20
197.132297
11
156.056548
21
195.385513
0
LINE
8
0
10
156.056548
20
195.385513
11
155.819400
21
193.444000
0
LINE
8
0
10
155.819400
20
193.444000
11
156.056549
21
191.502487
0
LINE
8
0
10
156.056549
20
191.502487
11
156.725390
21
189.755704
0
LINE
8
0
10
156.725390
20
189.755704
11
157.762013
21
188.249716
0
LINE
8
0
10
157.762013
20
188.249716
11
159.102508
21
187.030589
0
LINE
8
0
10
159.102508
20
187.030589
11
160.682963
21
186.144388
0
LINE
8
0
10
160.682963
20
186.144388
11
162.439471
21
185.637179
0
LINE
8
0
10
162.439471
20
185.637179
11
164.308120
21
185.555028
0
LINE
8
0
10
164.308120
20
185.555028
11
166.225000
21
185.944000
0
LINE
8
0
10
156.225000
20
220.944000
11
156.911421
21
222.462478
0
LINE
8
0
10
156.911421
20
222.462478
11
157.141534
21
224.018184
0
LINE
8
0
10
157.141534
20
224.018184
11
156.956147
21
225.537240
0
LINE
8
0
10
156.956147
20
225.537240
11
156.396069
21
226.945769
0
LINE
8
0
10
156.396069
20
226.945769
11
155.502108
21
228.169892
0
LINE
8
0
10
155.502108
20
228.169892
11
154.315073
21
229.135734
0
LINE
8
0
10
154.315073
20
229.135734
11
152.875770
21
229.769416
0
LINE
8
0
10
152.875770
20
229.769416
11
151.225010
21
229.997060
0
LINE
8
0
10
151.225010
20
229.997060
11
149.574249
21
229.769416
0
LINE
8
0
10
149.574249
20
229.769416
11
148.134947
21
229.135734
0
LINE
8
0
10
148.134947
20
229.135734
11
146.947911
21
228.169892
0
LINE
8
0
10
146.947911
20
228.169892
11
146.053950
21
226.945769
0
LINE
8
0
10
146.053950
20
226.945769
11
145.493872
21
225.537240
0
LINE
8
0
10
145.493872
20
225.537240
11
145.308486
21
224.018184
0
LINE
8
0
10
145.308486
20
224.018184
11
145.538599
21
222.462478
0
LINE
8
0
10
145.538599
20
222.462478
11
146.225020
21
220.944000
0
LINE
8
0
10
166.225000
20
255.944000
11
164.596663
21
255.929903
0
LINE
8
0
10
164.596663
20
255.929903
11
163.061774
21
255.582891
0
LINE
8
0
10
163.061774
20
255.582891
11
161.658449
21
254.937507
0
LINE
8
0
10
161.658449
20
254.937507
11
160.424804
21
254.028295
0
LINE
8
0
10
160.424804
20
254.028295
11
159.398953
21
252.889796
0
LINE
8
0
10
159.398953
20
252.889796
11
158.619011
21
251.556553
0
LINE
8
0
10
158.619011
20
251.556553
11
158.123095
21
250.063110
0
LINE
8
0
10
158.123095
20
250.063110
11
157.949320
21
248.444010
0
LINE
8
0
10
157.949320
20
248.444010
11
158.123095
21
246.824913
0
LINE
8
0
10
158.123095
20
246.824913
11
158.619010
21
245.331472
0
LINE
8
0
10
158.619010
20
245.331472
11
159.398950
21
243.998231
0
LINE
8
0
10
159.398950
20
243.998231
11
160.424800
21
242.859733
0
LINE
8
0
10
160.424800
20
242.859733
11
161.658445
21
241.950519
0
LINE
8
0
10
161.658445
20
241.950519
11
163.061770
21
241.305134
0
LINE
8
0
10
163.061770
20
241.305134
11
164.596660
21
240.958120
0
LINE
8
0
10
164.596660
20
240.958120
11
166.225000
21
240.944020
0
LINE
8
0
10
176.225000
20
220.944000
11
175.477813
21
220.074307
0
LINE
8
0
10
175.477813
20
220.074307
11
174.902450
21
219.146314
0
LINE
8
0
10
174.902450
20
219.146314
11
174.492369
21
218.175806
0
LINE
8
0
10
174.492369
20
218.175806
11
174.241027
21
217.178572
0
LINE
8
0
10
174.241027
20
217.178572
11
174.188388
21
215.167066
0
LINE
8
0
10
174.188388
20
215.167066
11
174.692193
21
213.238089
0
LINE
8
0
10
174.692193
20
213.238089
11
175.700097
21
211.517932
0
LINE
8
0
10
175.700097
20
211.517932
11
177.159760
21
210.132886
0
LINE
8
0
10
177.159760
20
210.132886
11
178.042643
21
209.605497
0
LINE
8
0
10
178.042643
20
209.605497
11
179.018838
21
209.209245
0
LINE
8
0
10
179.018838
20
209.209245
11
180.081801
21
208.959917
0
LINE
8
0
10
180.081801
20
208.959917
11
181.224990
21
208.873300
0
LINE
8
0
10
181.224990
20
208.873300
11
182.281927
21
208.952478
0
LINE
8
0
10
182.281927
20
208.952478
11
183.298376
21
209.183740
0
LINE
8
0
10
183.298376
20
209.183740
11
184.260246
21
209.557676
0
LINE
8
0
10
184.260246
20
209.557676
11
185.153449
21
210.064874
0
LINE
8
0
10
185.153449
20
210.064874
11
185.963894
21
210.695925
0
LINE
8
0
10
185.963894
20
210.695925
11
186.677492
21
211.441418
0
LINE
8
0
10
186.677492
20
211.441418
11
187.280154
21
212.291943
0
LINE
8
0
10
187.280154
20
212.291943
11
187.757790
21
213.238090
0
LINE
8
0
10
187.757790
20
213.238090
11
188.089106
21
214.244855
0
LINE
8
0
10
188.089106
20
214.244855
11
188.264405
21
215.272425
0
LINE
8
0
10
188.264405
20
215.272425
11
188.286993
21
216.304180
0
LINE
8
0
10
188.286993
20
216.304180
11
188.160176
21
217.323500
0
LINE
8
0
10
188.160176
20
217.323500
11
187.887261
21
218.313763
0
LINE
8
0
10
187.887261
20
218.313763
11
187.471552
21
219.258347
0
LINE
8
0
10
187.471552
20
219.258347
11
186.916357
21
220.140634
0
LINE
8
0
10
186.916357
20
220.140634
11
186.224980
21
220.944000
0
LINE
8
0
10
166.225000
20
170.943000
11
166.225000
21
185.945000
0
LINE
8
0
10
166.225000
20
200.944000
11
166.225000
21
220.944000
0
LINE
8
0
10
166.225000
20
220.944000
11
176.225000
21
220.944000
0
LINE
8
0
10
186.225000
20
220.944000
11
196.225000
21
220.944000
0
LINE
8
0
10
166.225000
20
270.944000
11
166.225000
21
255.944000
0
LINE
8
0
10
166.225000
20
240.944000
11
166.225000
21
220.944000
0
LINE
8
0
10
136.225000
20
220.944000
11
146.225000
21
220.944000
0
LINE
8
0
10
156.225000
20
220.944000
11
166.225000
21
220.944000
0
LINE
8
0
10
90.896800
20
30.855600
11
30.896800
21
30.855600
0
LINE
8
0
10
30.896800
20
30.855600
11
30.896800
21
130.855000
0
LINE
8
0
10
30.896800
20
130.855000
11
90.896800
21
130.855000
0
LINE
8
0
10
90.896800
20
130.855000
11
90.896800
21
30.855600
0
LINE
8
0
10
60.896800
20
60.855600
11
58.979914
21
61.244572
0
LINE
8
0
10
58.979914
20
61.244572
11
57.111262
21
61.162421
0
LINE
8
0
10
57.111262
20
61.162421
11
55.354755
21
60.655212
0
LINE
8
0
10
55.354755
20
60.655212
11
53.774300
21
59.769011
0
LINE
8
0
10
53.774300
20
59.769011
11
52.433808
21
58.549884
0
LINE
8
0
10
52.433808
20
58.549884
11
51.397188
21
57.043896
0
LINE
8
0
10
51.397188
20
57.043896
11
50.728348
21
55.297113
0
LINE
8
0
10
50.728348
20
55.297113
11
50.491200
21
53.355600
0
LINE
8
0
10
50.491200
20
53.355600
11
50.728349
21
51.414087
0
LINE
8
0
10
50.728349
20
51.414087
11
51.397190
21
49.667304
0
LINE
8
0
10
51.397190
20
49.667304
11
52.433813
21
48.161316
0
LINE
8
0
10
52.433813
20
48.161316
11
53.774307
21
46.942189
0
LINE
8
0
10
53.774307
20
46.942189
11
55.354763
21
46.055988
0
LINE
8
0
10
55.354763
20
46.055988
11
57.111271
21
45.548779
0
LINE
8
0
10
57.111271
20
45.548779
11
58.979920
21
45.466628
0
LINE
8
0
10
58.979920
20
45.466628
11
60.896800
21
45.855600
0
LINE
8
0
10
50.896800
20
80.855600
11
51.583221
21
82.374081
0
LINE
8
0
10
51.583221
20
82.374081
11
51.813334
21
83.929788
0
LINE
8
0
10
51.813334
20
83.929788
11
51.627947
21
85.448845
0
LINE
8
0
10
51.627947
20
85.448845
11
51.067869
21
86.857372
0
LINE
8
0
10
51.067869
20
86.857372
11
50.173908
21
88.081495
0
LINE
8
0
10
50.173908
20
88.081495
11
48.986873
21
89.047335
0
LINE
8
0
10
48.986873
20
89.047335
11
47.547570
21
89.681016
0
LINE
8
0
10
47.547570
20
89.681016
11
45.896810
21
89.908660
0
LINE
8
0
10
45.896810
20
89.908660
11
44.246049
21
89.681016
0
LINE
8
0
10
44.246049
20
89.681016
11
42.806747
21
89.047334
0
LINE
8
0
10
42.806747
20
89.047334
11
41.619711
21
88.081492
0
LINE
8
0
10
41.619711
20
88.081492
11
40.725750
21
86.857369
0
LINE
8
0
10
40.725750
20
86.857369
11
40.165672
21
85.448840
0
LINE
8
0
10
40.165672
20
85.448840
11
39.980286
21
83.929784
0
LINE
8
0
10
39.980286
20
83.929784
11
40.210399
21
82.374078
0
LINE
8
0
10
40.210399
20
82.374078
11
40.896820
21
80.855600
0
LINE
8
0
10
60.896800
20
115.856000
11
59.268463
21
115.841903
0
LINE
8
0
10
59.268463
20
115.841903
11
57.733574
21
115.494891
0
LINE
8
0
10
57.733574
20
115.494891
11
56.330249
21
114.849507
0
LINE
8
0
10
56.330249
20
114.849507
11
55.096604
21
113.940295
0
LINE
8
0
10
55.096604
20
113.940295
11
54.070753
21
112.801796
0
LINE
8
0
10
54.070753
20
112.801796
11
53.290811
21
111.468553
0
LINE
8
0
10
53.290811
20
111.468553
11
52.794895
21
109.975110
0
LINE
8
0
10
52.794895
20
109.975110
11
52.621120
21
108.356010
0
LINE
8
0
10
52.621120
20
108.356010
11
52.794895
21
106.736913
0
LINE
8
0
10
52.794895
20
106.736913
11
53.290810
21
105.243472
0
LINE
8
0
10
53.290810
20
105.243472
11
54.070750
21
103.910231
0
LINE
8
0
10
54.070750
20
103.910231
11
55.096600
21
102.771732
0
LINE
8
0
10
55.096600
20
102.771732
11
56.330245
21
101.862519
0
LINE
8
0
10
56.330245
20
101.862519
11
57.733570
21
101.217134
0
LINE
8
0
10
57.733570
20
101.217134
11
59.268460
21
100.870120
0
LINE
8
0
10
59.268460
20
100.870120
11
60.896800
21
100.856020
0
LINE
8
0
10
70.896800
20
80.855600
11
70.149613
21
79.985907
0
LINE
8
0
10
70.149613
20
79.985907
11
69.574250
21
79.057914
0
LINE
8
0
10
69.574250
20
79.057914
11
69.164169
21
78.087406
0
LINE
8
0
10
69.164169
20
78.087406
11
68.912827
21
77.090172
0
LINE
8
0
10
68.912827
20
77.090172
11
68.860188
21
75.078666
0
LINE
8
0
10
68.860188
20
75.078666
11
69.363992
21
73.149689
0
LINE
8
0
10
69.363992
20
73.149689
11
70.371897
21
71.429532
0
LINE
8
0
10
70.371897
20
71.429532
11
71.831560
21
70.044486
0
LINE
8
0
10
71.831560
20
70.044486
11
72.714443
21
69.517097
0
LINE
8
0
10
72.714443
20
69.517097
11
73.690638
21
69.120845
0
LINE
8
0
10
73.690638
20
69.120845
11
74.753601
21
68.871517
0
LINE
8
0
10
74.753601
20
68.871517
11
75.896790
21
68.784900
0
LINE
8
0
10
75.896790
20
68.784900
11
76.953727
21
68.864078
0
LINE
8
0
10
76.953727
20
68.864078
11
77.970176
21
69.095340
0
LINE
8
0
10
77.970176
20
69.095340
11
78.932046
21
69.469276
0
LINE
8
0
10
78.932046
20
69.469276
11
79.825249
21
69.976474
0
LINE
8
0
10
79.825249
20
69.976474
11
80.635694
21
70.607525
0
LINE
8
0
10
80.635694
20
70.607525
11
81.349292
21
71.353018
0
LINE
8
0
10
81.349292
20
71.353018
11
81.951954
21
72.203543
0
LINE
8
0
10
81.951954
20
72.203543
11
82.429590
21
73.149690
0
LINE
8
0
10
82.429590
20
73.149690
11
82.760906
21
74.156455
0
LINE
8
0
10
82.760906
20
74.156455
11
82.936205
21
75.184025
0
LINE
8
0
10
82.936205
20
75.184025
11
82.958793
21
76.215780
0
LINE
8
0
10
82.958793
20
76.215780
11
82.831976
21
77.235100
0
LINE
8
0
10
82.831976
20
77.235100
11
82.559061
21
78.225363
0
LINE
8
0
10
82.559061
20
78.225363
11
82.143352
21
79.169947
0
LINE
8
0
10
82.143352
20
79.169947
11
81.588157
21
80.052234
0
LINE
8
0
10
81.588157
20
80.052234
11
80.896780
21
80.855600
0
LINE
8
0
10
60.896800
20
30.854600
11
60.896800
21
45.856400
0
LINE
8
0
10
60.896800
20
60.855600
11
60.896800
21
80.855500
0
LINE
8
0
10
60.896800
20
80.855500
11
70.896800
21
80.855500
0
LINE
8
0
10
80.896800
20
80.855500
11
90.896800
21
80.855500
0
LINE
8
0
10
60.896800
20
130.856000
11
60.896800
21
115.856000
0
LINE
8
0
10
60.896800
20
100.855000
11
60.896800
21
80.855500
0
LINE
8
0
10
30.896800
20
80.855500
11
40.896800
21
80.855500
0
LINE
8
0
10
50.896800
20
80.855500
11
60.896800
21
80.855500
0
LINE
8
0
10
90.896800
20
30.855600
11
30.896800
21
30.855600
0
LINE
8
0
10
30.896800
20
30.855600
11
30.896800
21
130.855000
0
LINE
8
0
10
30.896800
20
130.855000
11
90.896800
21
130.855000
0
LINE
8
0
10
90.896800
20
130.855000
11
90.896800
21
30.855600
0
LINE
8
0
10
60.896800
20
60.855600
11
58.979914
21
61.244572
0
LINE
8
0
10
58.979914
20
61.244572
11
57.111262
21
61.162421
0
LINE
8
0
10
57.111262
20
61.162421
11
55.354755
21
60.655212
0
LINE
8
0
10
55.354755
20
60.655212
11
53.774300
21
59.769011
0
LINE
8
0
10
53.774300
20
59.769011
11
52.433808
21
58.549884
0
LINE
8
0
10
52.433808
20
58.549884
11
51.397188
21
57.043896
0
LINE
8
0
10
51.397188
20
57.043896
11
50.728348
21
55.297113
0
LINE
8
0
10
50.728348
20
55.297113
11
50.491200
21
53.355600
0
LINE
8
0
10
50.491200
20
53.355600
11
50.728349
21
51.414087
0
LINE
8
0
10
50.728349
20
51.414087
11
51.397190
21
49.667304
0
LINE
8
0
10
51.397190
20
49.667304
11
52.433813
21
48.161316
0
LINE
8
0
10
52.433813
20
48.161316
11
53.774307
21
46.942189
0
LINE
8
0
10
53.774307
20
46.942189
11
55.354763
21
46.055988
0
LINE
8
0
10
55.354763
20
46.055988
11
57.111271
21
45.548779
0
LINE
8
0
10
57.111271
20
45.548779
11
58.979920
21
45.466628
0
LINE
8
0
10
58.979920
20
45.466628
11
60.896800
21
45.855600
0
LINE
8
0
10
50.896800
20
80.855600
11
51.583221
21
82.374081
0
LINE
8
0
10
51.583221
20
82.374081
11
51.813334
21
83.929788
0
LINE
8
0
10
51.813334
20
83.929788
11
51.627947
21
85.448845
0
LINE
8
0
10
51.627947
20
85.448845
11
51.067869
21
86.857372
0
LINE
8
0
10
51.067869
20
86.857372
11
50.173908
21
88.081495
0
LINE
8
0
10
50.173908
20
88.081495
11
48.986873
21
89.047335
0
LINE
8
0
10
48.986873
20
89.047335
11
47.547570
21
89.681016
0
LINE
8
0
10
47.547570
20
89.681016
11
45.896810
21
89.908660
0
LINE
8
0
10
45.896810
20
89.908660
11
44.246049
21
89.681016
0
LINE
8
0
10
44.246049
20
89.681016
11
42.806747
21
89.047334
0
LINE
8
0
10
42.806747
20
89.047334
11
41.619711
21
88.081492
0
LINE
8
0
10
41.619711
20
88.081492
11
40.725750
21
86.857369
0
LINE
8
0
10
40.725750
20
86.857369
11
40.165672
21
85.448840
0
LINE
8
0
10
40.165672
20
85.448840
11
39.980286
21
83.929784
0
LINE
8
0
10
39.980286
20
83.929784
11
40.210399
21
82.374078
0
LINE
8
0
10
40.210399
20
82.374078
11
40.896820
21
80.855600
0
LINE
8
0
10
60.896800
20
115.856000
11
59.268463
21
115.841903
0
LINE
8
0
10
59.268463
20
115.841903
11
57.733574
21
115.494891
0
LINE
8
0
10
57.733574
20
115.494891
11
56.330249
21
114.849507
0
LINE
8
0
10
56.330249
20
114.849507
11
55.096604
21
113.940295
0
LINE
8
0
10
55.096604
20
113.940295
11
54.070753
21
112.801796
0
LINE
8
0
10
54.070753
20
112.801796
11
53.290811
21
111.468553
0
LINE
8
0
10
53.290811
20
111.468553
11
52.794895
21
109.975110
0
LINE
8
0
10
52.794895
20
109.975110
11
52.621120
21
108.356010
0
LINE
8
0
10
52.621120
20
108.356010
11
52.794895
21
106.736913
0
LINE
8
0
10
52.794895
20
106.736913
11
53.290810
21
105.243472
0
LINE
8
0
10
53.290810
20
105.243472
11
54.070750
21
103.910231
0
LINE
8
0
10
54.070750
20
103.910231
11
55.096600
21
102.771732
0
LINE
8
0
10
55.096600
20
102.771732
11
56.330245
21
101.862519
0
LINE
8
0
10
56.330245
20
101.862519
11
57.733570
21
101.217134
0
LINE
8
0
10
57.733570
20
101.217134
11
59.268460
21
100.870120
0
LINE
8
0
10
59.268460
20
100.870120
11
60.896800
21
100.856020
0
LINE
8
0
10
70.896800
20
80.855600
11
70.149613
21
79.985907
0
LINE
8
0
10
70.149613
20
79.985907
11
69.574250
21
79.057914
0
LINE
8
0
10
69.574250
20
79.057914
11
69.164169
21
78.087406
0
LINE
8
0
10
69.164169
20
78.087406
11
68.912827
21
77.090172
0
LINE
8
0
10
68.912827
20
77.090172
11
68.860188
21
75.078666
0
LINE
8
0
10
68.860188
20
75.078666
11
69.363992
21
73.149689
0
LINE
8
0
10
69.363992
20
73.149689
11
70.371897
21
71.429532
0
LINE
8
0
10
70.371897
20
71.429532
11
71.831560
21
70.044486
0
LINE
8
0
10
71.831560
20
70.044486
11
72.714443
21
69.517097
0
LINE
8
0
10
72.714443
20
69.517097
11
73.690638
21
69.120845
0
LINE
8
0
10
73.690638
20
69.120845
11
74.753601
21
68.871517
0
LINE
8
0
10
74.753601
20
68.871517
11
75.896790
21
68.784900
0
LINE
8
0
10
75.896790
20
68.784900
11
76.953727
21
68.864078
0
LINE
8
0
10
76.953727
20
68.864078
11
77.970176
21
69.095340
0
LINE
8
0
10
77.970176
20
69.095340
11
78.932046
21
69.469276
0
LINE
8
0
10
78.932046
20
69.469276
11
79.825249
21
69.976474
0
LINE
8
0
10
79.825249
20
69.976474
11
80.635694
21
70.607525
0
LINE
8
0
10
80.635694
20
70.607525
11
81.349292
21
71.353018
0
LINE
8
0
10
81.349292
20
71.353018
11
81.951954
21
72.203543
0
LINE
8
0
10
81.951954
20
72.203543
11
82.429590
21
73.149690
0
LINE
8
0
10
82.429590
20
73.149690
11
82.760906
21
74.156455
0
LINE
8
0
10
82.760906
20
74.156455
11
82.936205
21
75.184025
0
LINE
8
0
10
82.936205
20
75.184025
11
82.958793
21
76.215780
0
LINE
8
0
10
82.958793
20
76.215780
11
82.831976
21
77.235100
0
LINE
8
0
10
82.831976
20
77.235100
11
82.559061
21
78.225363
0
LINE
8
0
10
82.559061
20
78.225363
11
82.143352
21
79.169947
0
LINE
8
0
10
82.143352
20
79.169947
11
81.588157
21
80.052234
0
LINE
8
0
10
81.588157
20
80.052234
11
80.896780
21
80.855600
0
LINE
8
0
10
60.896800
20
30.854600
11
60.896800
21
45.856400
0
LINE
8
0
10
60.896800
20
60.855600
11
60.896800
21
80.855500
0
LINE
8
0
10
60.896800
20
80.855500
11
70.896800
21
80.855500
0
LINE
8
0
10
80.896800
20
80.855500
11
90.896800
21
80.855500
0
LINE
8
0
10
60.896800
20
130.856000
11
60.896800
21
115.856000
0
LINE
8
0
10
60.896800
20
100.855000
11
60.896800
21
80.855500
0
LINE
8
0
10
30.896800
20
80.855500
11
40.896800
21
80.855500
0
LINE
8
0
10
50.896800
20
80.855500
11
60.896800
21
80.855500
0
LINE
8
0
10
90.896800
20
30.855600
11
30.896800
21
30.855600
0
LINE
8
0
10
30.896800
20
30.855600
11
30.896800
21
130.855000
0
LINE
8
0
10
30.896800
20
130.855000
11
90.896800
21
130.855000
0
LINE
8
0
10
90.896800
20
130.855000
11
90.896800
21
30.855600
0
LINE
8
0
10
60.896800
20
60.855600
11
58.979914
21
61.244572
0
LINE
8
0
10
58.979914
20
61.244572
11
57.111262
21
61.162421
0
LINE
8
0
10
57.111262
20
61.162421
11
55.354755
21
60.655212
0
LINE
8
0
10
55.354755
20
60.655212
11
53.774300
21
59.769011
0
LINE
8
0
10
53.774300
20
59.769011
11
52.433808
21
58.549884
0
LINE
8
0
10
52.433808
20
58.549884
11
51.397188
21
57.043896
0
LINE
8
0
10
51.397188
20
57.043896
11
50.728348
21
55.297113
0
LINE
8
0
10
50.728348
20
55.297113
11
50.491200
21
53.355600
0
LINE
8
0
10
50.491200
20
53.355600
11
50.728349
21
51.414087
0
LINE
8
0
10
50.728349
20
51.414087
11
51.397190
21
49.667304
0
LINE
8
0
10
51.397190
20
49.667304
11
52.433813
21
48.161316
0
LINE
8
0
10
52.433813
20
48.161316
11
53.774307
21
46.942189
0
LINE
8
0
10
53.774307
20
46.942189
11
55.354763
21
46.055988
0
LINE
8
0
10
55.354763
20
46.055988
11
57.111271
21
45.548779
0
LINE
8
0
10
57.111271
20
45.548779
11
58.979920
21
45.466628
0
LINE
8
0
10
58.979920
20
45.466628
11
60.896800
21
45.855600
0
LINE
8
0
10
50.896800
20
80.855600
11
51.583221
21
82.374081
0
LINE
8
0
10
51.583221
20
82.374081
11
51.813334
21
83.929788
0
LINE
8
0
10
51.813334
20
83.929788
11
51.627947
21
85.448845
0
LINE
8
0
10
51.627947
20
85.448845
11
51.067869
21
86.857372
0
LINE
8
0
10
51.067869
20
86.857372
11
50.173908
21
88.081495
0
LINE
8
0
10
50.173908
20
88.081495
11
48.986873
21
89.047335
0
LINE
8
0
10
48.986873
20
89.047335
11
47.547570
21
89.681016
0
LINE
8
0
10
47.547570
20
89.681016
11
45.896810
21
89.908660
0
LINE
8
0
10
45.896810
20
89.908660
11
44.246049
21
89.681016
0
LINE
8
0
10
44.246049
20
89.681016
11
42.806747
21
89.047334
0
LINE
8
0
10
42.806747
20
89.047334
11
41.619711
21
88.081492
0
LINE
8
0
10
41.619711
20
88.081492
11
40.725750
21
86.857369
0
LINE
8
0
10
40.725750
20
86.857369
11
40.165672
21
85.448840
0
LINE
8
0
10
40.165672
20
85.448840
11
39.980286
21
83.929784
0
LINE
8
0
10
39.980286
20
83.929784
11
40.210399
21
82.374078
0
LINE
8
0
10
40.210399
20
82.374078
11
40.896820
21
80.855600
0
LINE
8
0
10
60.896800
20
115.856000
11
59.268463
21
115.841903
0
LINE
8
0
10
59.268463
20
115.841903
11
57.733574
21
115.494891
0
LINE
8
0
10
57.733574
20
115.494891
11
56.330249
21
114.849507
0
LINE
8
0
10
56.330249
20
114.849507
11
55.096604
21
113.940295
0
LINE
8
0
10
55.096604
20
113.940295
11
54.070753
21
112.801796
0
LINE
8
0
10
54.070753
20
112.801796
11
53.290811
21
111.468553
0
LINE
8
0
10
53.290811
20
111.468553
11
52.794895
21
109.975110
0
LINE
8
0
10
52.794895
20
109.975110
11
52.621120
21
108.356010
0
LINE
8
0
10
52.621120
20
108.356010
11
52.794895
21
106.736913
0
LINE
8
0
10
52.794895
20
106.736913
11
53.290810
21
105.243472
0
LINE
8
0
10
53.290810
20
105.243472
11
54.070750
21
103.910231
0
LINE
8
0
10
54.070750
20
103.910231
11
55.096600
21
102.771732
0
LINE
8
0
10
55.096600
20
102.771732
11
56.330245
21
101.862519
0
LINE
8
0
10
56.330245
20
101.862519
11
57.733570
21
101.217134
0
LINE
8
0
10
57.733570
20
101.217134
11
59.268460
21
100.870120
0
LINE
8
0
10
59.268460
20
100.870120
11
60.896800
21
100.856020
0
LINE
8
0
10
70.896800
20
80.855600
11
70.149613
21
79.985907
0
LINE
8
0
10
70.149613
20
79.985907
11
69.574250
21
79.057914
0
LINE
8
0
10
69.574250
20
79.057914
11
69.164169
21
78.087406
0
LINE
8
0
10
69.164169
20
78.087406
11
68.912827
21
77.090172
0
LINE
8
0
10
68.912827
20
77.090172
11
68.860188
21
75.078666
0
LINE
8
0
10
68.860188
20
75.078666
11
69.363992
21
73.149689
0
LINE
8
0
10
69.363992
20
73.149689
11
70.371897
21
71.429532
0
LINE
8
0
10
70.371897
20
71.429532
11
71.831560
21
70.044486
0
LINE
8
0
10
71.831560
20
70.044486
11
72.714443
21
69.517097
0
LINE
8
0
10
72.714443
20
69.517097
11
73.690638
21
69.120845
0
LINE
8
0
10
73.690638
20
69.120845
11
74.753601
21
68.871517
0
LINE
8
0
10
74.753601
20
68.871517
11
75.896790
21
68.784900
0
LINE
8
0
10
75.896790
20
68.784900
11
76.953727
21
68.864078
0
LINE
8
0
10
76.953727
20
68.864078
11
77.970176
21
69.095340
0
LINE
8
0
10
77.970176
20
69.095340
11
78.932046
21
69.469276
0
LINE
8
0
10
78.932046
20
69.469276
11
79.825249
21
69.976474
0
LINE
8
0
10
79.825249
20
69.976474
11
80.635694
21
70.607525
0
LINE
8
0
10
80.635694
20
70.607525
11
81.349292
21
71.353018
0
LINE
8
0
10
81.349292
20
71.353018
11
81.951954
21
72.203543
0
LINE
8
0
10
81.951954
20
72.203543
11
82.429590
21
73.149690
0
LINE
8
0
10
82.429590
20
73.149690
11
82.760906
21
74.156455
0
LINE
8
0
10
82.760906
20
74.156455
11
82.936205
21
75.184025
0
LINE
8
0
10
82.936205
20
75.184025
11
82.958793
21
76.215780
0
LINE
8
0
10
82.958793
20
76.215780
11
82.831976
21
77.235100
0
LINE
8
0
10
82.831976
20
77.235100
11
82.559061
21
78.225363
0
LINE
8
0
10
82.559061
20
78.225363
11
82.143352
21
79.169947
0
LINE
8
0
10
82.143352
20
79.169947
11
81.588157
21
80.052234
0
LINE
8
0
10
81.588157
20
80.052234
11
80.896780
21
80.855600
0
LINE
8
0
10
60.896800
20
30.854600
11
60.896800
21
45.856400
0
LINE
8
0
10
60.896800
20
60.855600
11
60.896800
21
80.855500
0
LINE
8
0
10
60.896800
20
80.855500
11
70.896800
21
80.855500
0
LINE
8
0
10
80.896800
20
80.855500
11
90.896800
21
80.855500
0
LINE
8
0
10
60.896800
20
130.856000
11
60.896800
21
115.856000
0
LINE
8
0
10
60.896800
20
100.855000
11
60.896800
21
80.855500
0
LINE
8
0
10
30.896800
20
80.855500
11
40.896800
21
80.855500
0
LINE
8
0
10
50.896800
20
80.855500
11
60.896800
21
80.855500
0
LINE
8
0
10
90.896800
20
30.855600
11
30.896800
21
30.855600
0
LINE
8
0
10
30.896800
20
30.855600
11
30.896800
21
130.855000
0
LINE
8
0
10
30.896800
20
130.855000
11
90.896800
21
130.855000
0
LINE
8
0
10
90.896800
20
130.855000
11
90.896800
21
30.855600
0
LINE
8
0
10
60.896800
20
60.855600
11
58.979914
21
61.244572
0
LINE
8
0
10
58.979914
20
61.244572
11
57.111262
21
61.162421
0
LINE
8
0
10
57.111262
20
61.162421
11
55.354755
21
60.655212
0
LINE
8
0
10
55.354755
20
60.655212
11
53.774300
21
59.769011
0
LINE
8
0
10
53.774300
20
59.769011
11
52.433808
21
58.549884
0
LINE
8
0
10
52.433808
20
58.549884
11
51.397188
21
57.043896
0
LINE
8
0
10
51.397188
20
57.043896
11
50.728348
21
55.297113
0
LINE
8
0
10
50.728348
20
55.297113
11
50.491200
21
53.355600
0
LINE
8
0
10
50.491200
20
53.355600
11
50.728349
21
51.414087
0
LINE
8
0
10
50.728349
20
51.414087
11
51.397190
21
49.667304
0
LINE
8
0
10
51.397190
20
49.667304
11
52.433813
21
48.161316
0
LINE
8
0
10
52.433813
20
48.161316
11
53.774307
21
46.942189
0
LINE
8
0
10
53.774307
20
46.942189
11
55.354763
21
46.055988
0
LINE
8
0
10
55.354763
20
46.055988
11
57.111271
21
45.548779
0
LINE
8
0
10
57.111271
20
45.548779
11
58.979920
21
45.466628
0
LINE
8
0
10
58.979920
20
45.466628
11
60.896800
21
45.855600
0
LINE
8
0
10
50.896800
20
80.855600
11
51.583221
21
82.374081
0
LINE
8
0
10
51.583221
20
82.374081
11
51.813334
21
83.929788
0
LINE
8
0
10
51.813334
20
83.929788
11
51.627947
21
85.448845
0
LINE
8
0
10
51.627947
20
85.448845
11
51.067869
21
86.857372
0
LINE
8
0
10
51.067869
20
86.857372
11
50.173908
21
88.081495
0
LINE
8
0
10
50.173908
20
88.081495
11
48.986873
21
89.047335
0
LINE
8
0
10
48.986873
20
89.047335
11
47.547570
21
89.681016
0
LINE
8
0
10
47.547570
20
89.681016
11
45.896810
21
89.908660
0
LINE
8
0
10
45.896810
20
89.908660
11
44.246049
21
89.681016
0
LINE
8
0
10
44.246049
20
89.681016
11
42.806747
21
89.047334
0
LINE
8
0
10
42.806747
20
89.047334
11
41.619711
21
88.081492
0
LINE
8
0
10
41.619711
20
88.081492
11
40.725750
21
86.857369
0
LINE
8
0
10
40.725750
20
86.857369
11
40.165672
21
85.448840
0
LINE
8
0
10
40.165672
20
85.448840
11
39.980286
21
83.929784
0
LINE
8
0
10
39.980286
20
83.929784
11
40.210399
21
82.374078
0
LINE
8
0
10
40.210399
20
82.374078
11
40.896820
21
80.855600
0
LINE
8
0
10
60.896800
20
115.856000
11
59.268463
21
115.841903
0
LINE
8
0
10
59.268463
20
115.841903
11
57.733574
21
115.494891
0
LINE
8
0
10
57.733574
20
115.494891
11
56.330249
21
114.849507
0
LINE
8
0
10
56.330249
20
114.849507
11
55.096604
21
113.940295
0
LINE
8
0
10
55.096604
20
113.940295
11
54.070753
21
112.801796
0
LINE
8
0
10
54.070753
20
112.801796
11
53.290811
21
111.468553
0
LINE
8
0
10
53.290811
20
111.468553
11
52.794895
21
109.975110
0
LINE
8
0
10
52.794895
20
109.975110
11
52.621120
21
108.356010
0
LINE
8
0
10
52.621120
20
108.356010
11
52.794895
21
106.736913
0
LINE
8
0
10
52.794895
20
106.736913
11
53.290810
21
105.243472
0
LINE
8
0
10
53.290810
20
105.243472
11
54.070750
21
103.910231
0
LINE
8
0
10
54.070750
20
103.910231
11
55.096600
21
102.771732
0
LINE
8
0
10
55.096600
20
102.771732
11
56.330245
21
101.862519
0
LINE
8
0
10
56.330245
20
101.862519
11
57.733570
21
101.217134
0
LINE
8
0
10
57.733570
20
101.217134
11
59.268460
21
100.870120
0
LINE
8
0
10
59.268460
20
100.870120
11
60.896800
21
100.856020
0
LINE
8
0
10
70.896800
20
80.855600
11
70.149613
21
79.985907
0
LINE
8
0
10
70.149613
20
79.985907
11
69.574250
21
79.057914
0
LINE
8
0
10
69.574250
20
79.057914
11
69.164169
21
78.087406
0
LINE
8
0
10
69.164169
20
78.087406
11
68.912827
21
77.090172
0
LINE
8
0
10
68.912827
20
77.090172
11
68.860188
21
75.078666
0
LINE
8
0
10
68.860188
20
75.078666
11
69.363992
21
73.149689
0
LINE
8
0
10
69.363992
20
73.149689
11
70.371897
21
71.429532
0
LINE
8
0
10
70.371897
20
71.429532
11
71.831560
21
70.044486
0
LINE
8
0
10
71.831560
20
70.044486
11
72.714443
21
69.517097
0
LINE
8
0
10
72.714443
20
69.517097
11
73.690638
21
69.120845
0
LINE
8
0
10
73.690638
20
69.120845
11
74.753601
21
68.871517
0
LINE
8
0
10
74.753601
20
68.871517
11
75.896790
21
68.784900
0
LINE
8
0
10
75.896790
20
68.784900
11
76.953727
21
68.864078
0
LINE
8
0
10
76.953727
20
68.864078
11
77.970176
21
69.095340
0
LINE
8
0
10
77.970176
20
69.095340
11
78.932046
21
69.469276
0
LINE
8
0
10
78.932046
20
69.469276
11
79.825249
21
69.976474
0
LINE
8
0
10
79.825249
20
69.976474
11
80.635694
21
70.607525
0
LINE
8
0
10
80.635694
20
70.607525
11
81.349292
21
71.353018
0
LINE
8
0
10
81.349292
20
71.353018
11
81.951954
21
72.203543
0
LINE
8
0
10
81.951954
20
72.203543
11
82.429590
21
73.149690
0
LINE
8
0
10
82.429590
20
73.149690
11
82.760906
21
74.156455
0
LINE
8
0
10
82.760906
20
74.156455
11
82.936205
21
75.184025
0
LINE
8
0
10
82.936205
20
75.184025
11
82.958793
21
76.215780
0
LINE
8
0
10
82.958793
20
76.215780
11
82.831976
21
77.235100
0
LINE
8
0
10
82.831976
20
77.235100
11
82.559061
21
78.225363
0
LINE
8
0
10
82.559061
20
78.225363
11
82.143352
21
79.169947
0
LINE
8
0
10
82.143352
20
79.169947
11
81.588157
21
80.052234
0
LINE
8
0
10
81.588157
20
80.052234
11
80.896780
21
80.855600
0
LINE
8
0
10
60.896800
20
30.854600
11
60.896800
21
45.856400
0
LINE
8
0
10
60.896800
20
60.855600
11
60.896800
21
80.855500
0
LINE
8
0
10
60.896800
20
80.855500
11
70.896800
21
80.855500
0
LINE
8
0
10
80.896800
20
80.855500
11
90.896800
21
80.855500
0
LINE
8
0
10
60.896800
20
130.856000
11
60.896800
21
115.856000
0
LINE
8
0
10
60.896800
20
100.855000
11
60.896800
21
80.855500
0
LINE
8
0
10
30.896800
20
80.855500
11
40.896800
21
80.855500
0
LINE
8
0
10
50.896800
20
80.855500
11
60.896800
21
80.855500
0
LINE
8
0
10
204.850000
20
36.082800
11
144.850000
21
36.082800
0
LINE
8
0
10
144.850000
20
36.082800
11
144.850000
21
136.083000
0
LINE
8
0
10
144.850000
20
136.083000
11
204.850000
21
136.083000
0
LINE
8
0
10
204.850000
20
136.083000
11
204.850000
21
36.082800
0
LINE
8
0
10
174.850000
20
66.082800
11
172.933114
21
66.471772
0
LINE
8
0
10
172.933114
20
66.471772
11
171.064462
21
66.389621
0
LINE
8
0
10
171.064462
20
66.389621
11
169.307955
21
65.882412
0
LINE
8
0
10
169.307955
20
65.882412
11
167.727500
21
64.996211
0
LINE
8
0
10
167.727500
20
64.996211
11
166.387008
21
63.777084
0
LINE
8
0
10
166.387008
20
63.777084
11
165.350388
21
62.271096
0
LINE
8
0
10
165.350388
20
62.271096
11
164.681548
21
60.524313
0
LINE
8
0
10
164.681548
20
60.524313
11
164.444400
21
58.582800
0
LINE
8
0
10
164.444400
20
58.582800
11
164.681549
21
56.641287
0
LINE
8
0
10
164.681549
20
56.641287
11
165.350390
21
54.894504
0
LINE
8
0
10
165.350390
20
54.894504
11
166.387013
21
53.388516
0
LINE
8
0
10
166.387013
20
53.388516
11
167.727508
21
52.169389
0
LINE
8
0
10
167.727508
20
52.169389
11
169.307963
21
51.283188
0
LINE
8
0
10
169.307963
20
51.283188
11
171.064471
21
50.775979
0
LINE
8
0
10
171.064471
20
50.775979
11
172.933120
21
50.693828
0
LINE
8
0
10
172.933120
20
50.693828
11
174.850000
21
51.082800
0
LINE
8
0
10
164.850000
20
86.082700
11
165.536421
21
87.601181
0
LINE
8
0
10
165.536421
20
87.601181
11
165.766534
21
89.156888
0
LINE
8
0
10
165.766534
20
89.156888
11
165.581147
21
90.675945
0
LINE
8
0
10
165.581147
20
90.675945
11
165.021069
21
92.084473
0
LINE
8
0
10
165.021069
20
92.084473
11
164.127108
21
93.308595
0
LINE
8
0
10
164.127108
20
93.308595
11
162.940073
21
94.274435
0
LINE
8
0
10
162.940073
20
94.274435
11
161.500770
21
94.908116
0
LINE
8
0
10
161.500770
20
94.908116
11
159.850010
21
95.135760
0
LINE
8
0
10
159.850010
20
95.135760
11
158.199249
21
94.908116
0
LINE
8
0
10
158.199249
20
94.908116
11
156.759947
21
94.274434
0
LINE
8
0
10
156.759947
20
94.274434
11
155.572911
21
93.308592
0
LINE
8
0
10
155.572911
20
93.308592
11
154.678950
21
92.084469
0
LINE
8
0
10
154.678950
20
92.084469
11
154.118872
21
90.675940
0
LINE
8
0
10
154.118872
20
90.675940
11
153.933486
21
89.156884
0
LINE
8
0
10
153.933486
20
89.156884
11
154.163599
21
87.601178
0
LINE
8
0
10
154.163599
20
87.601178
11
154.850020
21
86.082700
0
LINE
8
0
10
174.850000
20
121.083000
11
173.221663
21
121.068903
0
LINE
8
0
10
173.221663
20
121.068903
11
171.686774
21
120.721891
0
LINE
8
0
10
171.686774
20
120.721891
11
170.283449
21
120.076507
0
LINE
8
0
10
170.283449
20
120.076507
11
169.049804
21
119.167295
0
LINE
8
0
10
169.049804
20
119.167295
11
168.023953
21
118.028796
0
LINE
8
0
10
168.023953
20
118.028796
11
167.244011
21
116.695553
0
LINE
8
0
10
167.244011
20
116.695553
11
166.748095
21
115.202110
0
LINE
8
0
10
166.748095
20
115.202110
11
166.574320
21
113.583010
0
LINE
8
0
10
166.574320
20
113.583010
11
166.748095
21
111.963913
0
LINE
8
0
10
166.748095
20
111.963913
11
167.244010
21
110.470472
0
LINE
8
0
10
167.244010
20
110.470472
11
168.023950
21
109.137231
0
LINE
8
0
10
168.023950
20
109.137231
11
169.049800
21
107.998732
0
LINE
8
0
10
169.049800
20
107.998732
11
170.283445
21
107.089519
0
LINE
8
0
10
170.283445
20
107.089519
11
171.686770
21
106.444134
0
LINE
8
0
10
171.686770
20
106.444134
11
173.221660
21
106.097120
0
LINE
8
0
10
173.221660
20
106.097120
11
174.850000
21
106.083020
0
LINE
8
0
10
184.850000
20
86.082700
11
184.102813
21
85.213007
0
LINE
8
0
10
184.102813
20
85.213007
11
183.527450
21
84.285014
0
LINE
8
0
10
183.527450
20
84.285014
11
183.117369
21
83.314506
0
LINE
8
0
10
183.117369
20
83.314506
11
182.866027
21
82.317272
0
LINE
8
0
10
182.866027
20
82.317272
11
182.813388
21
80.305766
0
LINE
8
0
10
182.813388
20
80.305766
11
183.317193
21
78.376789
0
LINE
8
0
10
183.317193
20
78.376789
11
184.325097
21
76.656632
0
LINE
8
0
10
184.325097
20
76.656632
11
185.784760
21
75.271586
0
LINE
8
0
10
185.784760
20
75.271586
11
186.667643
21
74.744197
0
LINE
8
0
10
186.667643
20
74.744197
11
187.643838
21
74.347945
0
LINE
8
0
10
187.643838
20
74.347945
11
188.706801
21
74.098617
0
LINE
8
0
10
188.706801
20
74.098617
11
189.849990
21
74.012000
0
LINE
8
0
10
189.849990
20
74.012000
11
190.906927
21
74.091178
0
LINE
8
0
10
190.906927
20
74.091178
11
191.923376
21
74.322440
0
LINE
8
0
10
191.923376
20
74.322440
11
192.885246
21
74.696376
0
LINE
8
0
10
192.885246
20
74.696376
11
193.778449
21
75.203574
0
LINE
8
0
10
193.778449
20
75.203574
11
194.588894
21
75.834625
0
LINE
8
0
10
194.588894
20
75.834625
11
195.302492
21
76.580118
0
LINE
8
0
10
195.302492
20
76.580118
11
195.905154
21
77.430643
0
LINE
8
0
10
195.905154
20
77.430643
11
196.382790
21
78.376790
0
LINE
8
0
10
196.382790
20
78.376790
11
196.714106
21
79.383555
0
LINE
8
0
10
196.714106
20
79.383555
11
196.889405
21
80.411125
0
LINE
8
0
10
196.889405
20
80.411125
11
196.911993
21
81.442880
0
LINE
8
0
10
196.911993
20
81.442880
11
196.785176
21
82.462200
0
LINE
8
0
10
196.785176
20
82.462200
11
196.512261
21
83.452463
0
LINE
8
0
10
196.512261
20
83.452463
11
196.096552
21
84.397047
0
LINE
8
0
10
196.096552
20
84.397047
11
195.541357
21
85.279334
0
LINE
8
0
10
195.541357
20
85.279334
11
194.849980
21
86.082700
0
LINE
8
0
10
174.850000
20
36.081800
11
174.850000
21
51.083600
0
LINE
8
0
10
174.850000
20
66.082800
11
174.850000
21
86.082700
0
LINE
8
0
10
174.850000
20
86.082700
11
184.850000
21
86.082700
0
LINE
8
0
10
194.850000
20
86.082700
11
204.850000
21
86.082700
0
LINE
8
0
10
174.850000
20
136.083000
11
174.850000
21
121.083000
0
LINE
8
0
10
174.850000
20
106.082000
11
174.850000
21
86.082700
0
LINE
8
0
10
144.850000
20
86.082700
11
154.850000
21
86.082700
0
LINE
8
0
10
164.850000
20
86.082700
11
174.850000
21
86.082700
0
LINE
8
0
10
204.850000
20
36.082800
11
144.850000
21
36.082800
0
LINE
8
0
10
144.850000
20
36.082800
11
144.850000
21
136.083000
0
LINE
8
0
10
144.850000
20
136.083000
11
204.850000
21
136.083000
0
LINE
8
0
10
204.850000
20
136.083000
11
204.850000
21
36.082800
0
LINE
8
0
10
174.850000
20
66.082800
11
172.933114
21
66.471772
0
LINE
8
0
10
172.933114
20
66.471772
11
171.064462
21
66.389621
0
LINE
8
0
10
171.064462
20
66.389621
11
169.307955
21
65.882412
0
LINE
8
0
10
169.307955
20
65.882412
11
167.727500
21
64.996211
0
LINE
8
0
10
167.727500
20
64.996211
11
166.387008
21
63.777084
0
LINE
8
0
10
166.387008
20
63.777084
11
165.350388
21
62.271096
0
LINE
8
0
10
165.350388
20
62.271096
11
164.681548
21
60.524313
0
LINE
8
0
10
164.681548
20
60.524313
11
164.444400
21
58.582800
0
LINE
8
0
10
164.444400
20
58.582800
11
164.681549
21
56.641287
0
LINE
8
0
10
164.681549
20
56.641287
11
165.350390
21
54.894504
0
LINE
8
0
10
165.350390
20
54.894504
11
166.387013
21
53.388516
0
LINE
8
0
10
166.387013
20
53.388516
11
167.727508
21
52.169389
0
LINE
8
0
10
167.727508
20
52.169389
11
169.307963
21
51.283188
0
LINE
8
0
10
169.307963
20
51.283188
11
171.064471
21
50.775979
0
LINE
8
0
10
171.064471
20
50.775979
11
172.933120
21
50.693828
0
LINE
8
0
10
172.933120
20
50.693828
11
174.850000
21
51.082800
0
LINE
8
0
10
164.850000
20
86.082700
11
165.536421
21
87.601181
0
LINE
8
0
10
165.536421
20
87.601181
11
165.766534
21
89.156888
0
LINE
8
0
10
165.766534
20
89.156888
11
165.581147
21
90.675945
0
LINE
8
0
10
165.581147
20
90.675945
11
165.021069
21
92.084473
0
LINE
8
0
10
165.021069
20
92.084473
11
164.127108
21
93.308595
0
LINE
8
0
10
164.127108
20
93.308595
11
162.940073
21
94.274435
0
LINE
8
0
10
162.940073
20
94.274435
11
161.500770
21
94.908116
0
LINE
8
0
10
161.500770
20
94.908116
11
159.850010
21
95.135760
0
LINE
8
0
10
159.850010
20
95.135760
11
158.199249
21
94.908116
0
LINE
8
0
10
158.199249
20
94.908116
11
156.759947
21
94.274434
0
LINE
8
0
10
156.759947
20
94.274434
11
155.572911
21
93.308592
0
LINE
8
0
10
155.572911
20
93.308592
11
154.678950
21
92.084469
0
LINE
8
0
10
154.678950
20
92.084469
11
154.118872
21
90.675940
0
LINE
8
0
10
154.118872
20
90.675940
11
153.933486
21
89.156884
0
LINE
8
0
10
153.933486
20
89.156884
11
154.163599
21
87.601178
0
LINE
8
0
10
154.163599
20
87.601178
11
154.850020
21
86.082700
0
LINE
8
0
10
174.850000
20
121.083000
11
173.221663
21
121.068903
0
LINE
8
0
10
173.221663
20
121.068903
11
171.686774
21
120.721891
0
LINE
8
0
10
171.686774
20
120.721891
11
170.283449
21
120.076507
0
LINE
8
0
10
170.283449
20
120.076507
11
169.049804
21
119.167295
0
LINE
8
0
10
169.049804
20
119.167295
11
168.023953
21
118.028796
0
LINE
8
0
10
168.023953
20
118.028796
11
167.244011
21
116.695553
0
LINE
8
0
10
167.244011
20
116.695553
11
166.748095
21
115.202110
0
LINE
8
0
10
166.748095
20
115.202110
11
166.574320
21
113.583010
0
LINE
8
0
10
166.574320
20
113.583010
11
166.748095
21
111.963913
0
LINE
8
0
10
166.748095
20
111.963913
11
167.244010
21
110.470472
0
LINE
8
0
10
167.244010
20
110.470472
11
168.023950
21
109.137231
0
LINE
8
0
10
168.023950
20
109.137231
11
169.049800
21
107.998732
0
LINE
8
0
10
169.049800
20
107.998732
11
170.283445
21
107.089519
0
LINE
8
0
10
170.283445
20
107.089519
11
171.686770
21
106.444134
0
LINE
8
0
10
171.686770
20
106.444134
11
173.221660
21
106.097120
0
LINE
8
0
10
173.221660
20
106.097120
11
174.850000
21
106.083020
0
LINE
8
0
10
184.850000
20
86.082700
11
184.102813
21
85.213007
0
LINE
8
0
10
184.102813
20
85.213007
11
183.527450
21
84.285014
0
LINE
8
0
10
183.527450
20
84.285014
11
183.117369
21
83.314506
0
LINE
8
0
10
183.117369
20
83.314506
11
182.866027
21
82.317272
0
LINE
8
0
10
182.866027
20
82.317272
11
182.813388
21
80.305766
0
LINE
8
0
10
182.813388
20
80.305766
11
183.317193
21
78.376789
0
LINE
8
0
10
183.317193
20
78.376789
11
184.325097
21
76.656632
0
LINE
8
0
10
184.325097
20
76.656632
11
185.784760
21
75.271586
0
LINE
8
0
10
185.784760
20
75.271586
11
186.667643
21
74.744197
0
LINE
8
0
10
186.667643
20
74.744197
11
187.643838
21
74.347945
0
LINE
8
0
10
187.643838
20
74.347945
11
188.706801
21
74.098617
0
LINE
8
0
10
188.706801
20
74.098617
11
189.849990
21
74.012000
0
LINE
8
0
10
189.849990
20
74.012000
11
190.906927
21
74.091178
0
LINE
8
0
10
190.906927
20
74.091178
11
191.923376
21
74.322440
0
LINE
8
0
10
191.923376
20
74.322440
11
192.885246
21
74.696376
0
LINE
8
0
10
192.885246
20
74.696376
11
193.778449
21
75.203574
0
LINE
8
0
10
193.778449
20
75.203574
11
194.588894
21
75.834625
0
LINE
8
0
10
194.588894
20
75.834625
11
195.302492
21
76.580118
0
LINE
8
0
10
195.302492
20
76.580118
11
195.905154
21
77.430643
0
LINE
8
0
10
195.905154
20
77.430643
11
196.382790
21
78.376790
0
LINE
8
0
10
196.382790
20
78.376790
11
196.714106
21
79.383555
0
LINE
8
0
10
196.714106
20
79.383555
11
196.889405
21
80.411125
0
LINE
8
0
10
196.889405
20
80.411125
11
196.911993
21
81.442880
0
LINE
8
0
10
196.911993
20
81.442880
11
196.785176
21
82.462200
0
LINE
8
0
10
196.785176
20
82.462200
11
196.512261
21
83.452463
0
LINE
8
0
10
196.512261
20
83.452463
11
196.096552
21
84.397047
0
LINE
8
0
10
196.096552
20
84.397047
11
195.541357
21
85.279334
0
LINE
8
0
10
195.541357
20
85.279334
11
194.849980
21
86.082700
0
LINE
8
0
10
174.850000
20
36.081800
11
174.850000
21
51.083600
0
LINE
8
0
10
174.850000
20
66.082800
11
174.850000
21
86.082700
0
LINE
8
0
10
174.850000
20
86.082700
11
184.850000
21
86.082700
0
LINE
8
0
10
194.850000
20
86.082700
11
204.850000
21
86.082700
0
LINE
8
0
10
174.850000
20
136.083000
11
174.850000
21
121.083000
0
LINE
8
0
10
174.850000
20
106.082000
11
174.850000
21
86.082700
0
LINE
8
0
10
144.850000
20
86.082700
11
154.850000
21
86.082700
0
LINE
8
0
10
164.850000
20
86.082700
11
174.850000
21
86.082700
0
LINE
8
0
10
204.850000
20
36.082800
11
144.850000
21
36.082800
0
LINE
8
0
10
144.850000
20
36.082800
11
144.850000
21
136.083000
0
LINE
8
0
10
144.850000
20
136.083000
11
204.850000
21
136.083000
0
LINE
8
0
10
204.850000
20
136.083000
11
204.850000
21
36.082800
0
LINE
8
0
10
174.850000
20
66.082800
11
172.933114
21
66.471772
0
LINE
8
0
10
172.933114
20
66.471772
11
171.064462
21
66.389621
0
LINE
8
0
10
171.064462
20
66.389621
11
169.307955
21
65.882412
0
LINE
8
0
10
169.307955
20
65.882412
11
167.727500
21
64.996211
0
LINE
8
0
10
167.727500
20
64.996211
11
166.387008
21
63.777084
0
LINE
8
0
10
166.387008
20
63.777084
11
165.350388
21
62.271096
0
LINE
8
0
10
165.350388
20
62.271096
11
164.681548
21
60.524313
0
LINE
8
0
10
164.681548
20
60.524313
11
164.444400
21
58.582800
0
LINE
8
0
10
164.444400
20
58.582800
11
164.681549
21
56.641287
0
LINE
8
0
10
164.681549
20
56.641287
11
165.350390
21
54.894504
0
LINE
8
0
10
165.350390
20
54.894504
11
166.387013
21
53.388516
0
LINE
8
0
10
166.387013
20
53.388516
11
167.727508
21
52.169389
0
LINE
8
0
10
167.727508
20
52.169389
11
169.307963
21
51.283188
0
LINE
8
0
10
169.307963
20
51.283188
11
171.064471
21
50.775979
0
LINE
8
0
10
171.064471
20
50.775979
11
172.933120
21
50.693828
0
LINE
8
0
10
172.933120
20
50.693828
11
174.850000
21
51.082800
0
LINE
8
0
10
164.850000
20
86.082700
11
165.536421
21
87.601181
0
LINE
8
0
10
165.536421
20
87.601181
11
165.766534
21
89.156888
0
LINE
8
0
10
165.766534
20
89.156888
11
165.581147
21
90.675945
0
LINE
8
0
10
165.581147
20
90.675945
11
165.021069
21
92.084473
0
LINE
8
0
10
165.021069
20
92.084473
11
164.127108
21
93.308595
0
LINE
8
0
10
164.127108
20
93.308595
11
162.940073
21
94.274435
0
LINE
8
0
10
162.940073
20
94.274435
11
161.500770
21
94.908116
0
LINE
8
0
10
161.500770
20
94.908116
11
159.850010
21
95.135760
0
LINE
8
0
10
159.850010
20
95.135760
11
158.199249
21
94.908116
0
LINE
8
0
10
158.199249
20
94.908116
11
156.759947
21
94.274434
0
LINE
8
0
10
156.759947
20
94.274434
11
155.572911
21
93.308592
0
LINE
8
0
10
155.572911
20
93.308592
11
154.678950
21
92.084469
0
LINE
8
0
10
154.678950
20
92.084469
11
154.118872
21
90.675940
0
LINE
8
0
10
154.118872
20
90.675940
11
153.933486
21
89.156884
0
LINE
8
0
10
153.933486
20
89.156884
11
154.163599
21
87.601178
0
LINE
8
0
10
154.163599
20
87.601178
11
154.850020
21
86.082700
0
LINE
8
0
10
174.850000
20
121.083000
11
173.221663
21
121.068903
0
LINE
8
0
10
173.221663
20
121.068903
11
171.686774
21
120.721891
0
LINE
8
0
10
171.686774
20
120.721891
11
170.283449
21
120.076507
0
LINE
8
0
10
170.283449
20
120.076507
11
169.049804
21
119.167295
0
LINE
8
0
10
169.049804
20
119.167295
11
168.023953
21
118.028796
0
LINE
8
0
10
168.023953
20
118.028796
11
167.244011
21
116.695553
0
LINE
8
0
10
167.244011
20
116.695553
11
166.748095
21
115.202110
0
LINE
8
0
10
166.748095
20
115.202110
11
166.574320
21
113.583010
0
LINE
8
0
10
166.574320
20
113.583010
11
166.748095
21
111.963913
0
LINE
8
0
10
166.748095
20
111.963913
11
167.244010
21
110.470472
0
LINE
8
0
10
167.244010
20
110.470472
11
168.023950
21
109.137231
0
LINE
8
0
10
168.023950
20
109.137231
11
169.049800
21
107.998732
0
LINE
8
0
10
169.049800
20
107.998732
11
170.283445
21
107.089519
0
LINE
8
0
10
170.283445
20
107.089519
11
171.686770
21
106.444134
0
LINE
8
0
10
171.686770
20
106.444134
11
173.221660
21
106.097120
0
LINE
8
0
10
173.221660
20
106.097120
11
174.850000
21
106.083020
0
LINE
8
0
10
184.850000
20
86.082700
11
184.102813
21
85.213007
0
LINE
8
0
10
184.102813
20
85.213007
11
183.527450
21
84.285014
0
LINE
8
0
10
183.527450
20
84.285014
11
183.117369
21
83.314506
0
LINE
8
0
10
183.117369
20
83.314506
11
182.866027
21
82.317272
0
LINE
8
0
10
182.866027
20
82.317272
11
182.813388
21
80.305766
0
LINE
8
0
10
182.813388
20
80.305766
11
183.317193
21
78.376789
0
LINE
8
0
10
183.317193
20
78.376789
11
184.325097
21
76.656632
0
LINE
8
0
10
184.325097
20
76.656632
11
185.784760
21
75.271586
0
LINE
8
0
10
185.784760
20
75.271586
11
186.667643
21
74.744197
0
LINE
8
0
10
186.667643
20
74.744197
11
187.643838
21
74.347945
0
LINE
8
0
10
187.643838
20
74.347945
11
188.706801
21
74.098617
0
LINE
8
0
10
188.706801
20
74.098617
11
189.849990
21
74.012000
0
LINE
8
0
10
189.849990
20
74.012000
11
190.906927
21
74.091178
0
LINE
8
0
10
190.906927
20
74.091178
11
191.923376
21
74.322440
0
LINE
8
0
10
191.923376
20
74.322440
11
192.885246
21
74.696376
0
LINE
8
0
10
192.885246
20
74.696376
11
193.778449
21
75.203574
0
LINE
8
0
10
193.778449
20
75.203574
11
194.588894
21
75.834625
0
LINE
8
0
10
194.588894
20
75.834625
11
195.302492
21
76.580118
0
LINE
8
0
10
195.302492
20
76.580118
11
195.905154
21
77.430643
0
LINE
8
0
10
195.905154
20
77.430643
11
196.382790
21
78.376790
0
LINE
8
0
10
196.382790
20
78.376790
11
196.714106
21
79.383555
0
LINE
8
0
10
196.714106
20
79.383555
11
196.889405
21
80.411125
0
LINE
8
0
10
196.889405
20
80.411125
11
196.911993
21
81.442880
0
LINE
8
0
10
196.911993
20
81.442880
11
196.785176
21
82.462200
0
LINE
8
0
10
196.785176
20
82.462200
11
196.512261
21
83.452463
0
LINE
8
0
10
196.512261
20
83.452463
11
196.096552
21
84.397047
0
LINE
8
0
10
196.096552
20
84.397047
11
195.541357
21
85.279334
0
LINE
8
0
10
195.541357
20
85.279334
11
194.849980
21
86.082700
0
LINE
8
0
10
174.850000
20
36.081800
11
174.850000
21
51.083600
0
LINE
8
0
10
174.850000
20
66.082800
11
174.850000
21
86.082700
0
LINE
8
0
10
174.850000
20
86.082700
11
184.850000
21
86.082700
0
LINE
8
0
10
194.850000
20
86.082700
11
204.850000
21
86.082700
0
LINE
8
0
10
174.850000
20
136.083000
11
174.850000
21
121.083000
0
LINE
8
0
10
174.850000
20
106.082000
11
174.850000
21
86.082700
0
LINE
8
0
10
144.850000
20
86.082700
11
154.850000
21
86.082700
0
LINE
8
0
10
164.850000
20
86.082700
11
174.850000
21
86.082700
0
LINE
8
0
10
204.850000
20
36.082800
11
144.850000
21
36.082800
0
LINE
8
0
10
144.850000
20
36.082800
11
144.850000
21
136.083000
0
LINE
8
0
10
144.850000
20
136.083000
11
204.850000
21
136.083000
0
LINE
8
0
10
204.850000
20
136.083000
11
204.850000
21
36.082800
0
LINE
8
0
10
174.850000
20
66.082800
11
172.933114
21
66.471772
0
LINE
8
0
10
172.933114
20
66.471772
11
171.064462
21
66.389621
0
LINE
8
0
10
171.064462
20
66.389621
11
169.307955
21
65.882412
0
LINE
8
0
10
169.307955
20
65.882412
11
167.727500
21
64.996211
0
LINE
8
0
10
167.727500
20
64.996211
11
166.387008
21
63.777084
0
LINE
8
0
10
166.387008
20
63.777084
11
165.350388
21
62.271096
0
LINE
8
0
10
165.350388
20
62.271096
11
164.681548
21
60.524313
0
LINE
8
0
10
164.681548
20
60.524313
11
164.444400
21
58.582800
0
LINE
8
0
10
164.444400
20
58.582800
11
164.681549
21
56.641287
0
LINE
8
0
10
164.681549
20
56.641287
11
165.350390
21
54.894504
0
LINE
8
0
10
165.350390
20
54.894504
11
166.387013
21
53.388516
0
LINE
8
0
10
166.387013
20
53.388516
11
167.727508
21
52.169389
0
LINE
8
0
10
167.727508
20
52.169389
11
169.307963
21
51.283188
0
LINE
8
0
10
169.307963
20
51.283188
11
171.064471
21
50.775979
0
LINE
8
0
10
171.064471
20
50.775979
11
172.933120
21
50.693828
0
LINE
8
0
10
172.933120
20
50.693828
11
174.850000
21
51.082800
0
LINE
8
0
10
164.850000
20
86.082700
11
165.536421
21
87.601181
0
LINE
8
0
10
165.536421
20
87.601181
11
165.766534
21
89.156888
0
LINE
8
0
10
165.766534
20
89.156888
11
165.581147
21
90.675945
0
LINE
8
0
10
165.581147
20
90.675945
11
165.021069
21
92.084473
0
LINE
8
0
10
165.021069
20
92.084473
11
164.127108
21
93.308595
0
LINE
8
0
10
164.127108
20
93.308595
11
162.940073
21
94.274435
0
LINE
8
0
10
162.940073
20
94.274435
11
161.500770
21
94.908116
0
LINE
8
0
10
161.500770
20
94.908116
11
159.850010
21
95.135760
0
LINE
8
0
10
159.850010
20
95.135760
11
158.199249
21
94.908116
0
LINE
8
0
10
158.199249
20
94.908116
11
156.759947
21
94.274434
0
LINE
8
0
10
156.759947
20
94.274434
11
155.572911
21
93.308592
0
LINE
8
0
10
155.572911
20
93.308592
11
154.678950
21
92.084469
0
LINE
8
0
10
154.678950
20
92.084469
11
154.118872
21
90.675940
0
LINE
8
0
10
154.118872
20
90.675940
11
153.933486
21
89.156884
0
LINE
8
0
10
153.933486
20
89.156884
11
154.163599
21
87.601178
0
LINE
8
0
10
154.163599
20
87.601178
11
154.850020
21
86.082700
0
LINE
8
0
10
174.850000
20
121.083000
11
173.221663
21
121.068903
0
LINE
8
0
10
173.221663
20
121.068903
11
171.686774
21
120.721891
0
LINE
8
0
10
171.686774
20
120.721891
11
170.283449
21
120.076507
0
LINE
8
0
10
170.283449
20
120.076507
11
169.049804
21
119.167295
0
LINE
8
0
10
169.049804
20
119.167295
11
168.023953
21
118.028796
0
LINE
8
0
10
168.023953
20
118.028796
11
167.244011
21
116.695553
0
LINE
8
0
10
167.244011
20
116.695553
11
166.748095
21
115.202110
0
LINE
8
0
10
166.748095
20
115.202110
11
166.574320
21
113.583010
0
LINE
8
0
10
166.574320
20
113.583010
11
166.748095
21
111.963913
0
LINE
8
0
10
166.748095
20
111.963913
11
167.244010
21
110.470472
0
LINE
8
0
10
167.244010
20
110.470472
11
168.023950
21
109.137231
0
LINE
8
0
10
168.023950
20
109.137231
11
169.049800
21
107.998732
0
LINE
8
0
10
169.049800
20
107.998732
11
170.283445
21
107.089519
0
LINE
8
0
10
170.283445
20
107.089519
11
171.686770
21
106.444134
0
LINE
8
0
10
171.686770
20
106.444134
11
173.221660
21
106.097120
0
LINE
8
0
10
173.221660
20
106.097120
11
174.850000
21
106.083020
0
LINE
8
0
10
184.850000
20
86.082700
11
184.102813
21
85.213007
0
LINE
8
0
10
184.102813
20
85.213007
11
183.527450
21
84.285014
0
LINE
8
0
10
183.527450
20
84.285014
11
183.117369
21
83.314506
0
LINE
8
0
10
183.117369
20
83.314506
11
182.866027
21
82.317272
0
LINE
8
0
10
182.866027
20
82.317272
11
182.813388
21
80.305766
0
LINE
8
0
10
182.813388
20
80.305766
11
183.317193
21
78.376789
0
LINE
8
0
10
183.317193
20
78.376789
11
184.325097
21
76.656632
0
LINE
8
0
10
184.325097
20
76.656632
11
185.784760
21
75.271586
0
LINE
8
0
10
185.784760
20
75.271586
11
186.667643
21
74.744197
0
LINE
8
0
10
186.667643
20
74.744197
11
187.643838
21
74.347945
0
LINE
8
0
10
187.643838
20
74.347945
11
188.706801
21
74.098617
0
LINE
8
0
10
188.706801
20
74.098617
11
189.849990
21
74.012000
0
LINE
8
0
10
189.849990
20
74.012000
11
190.906927
21
74.091178
0
LINE
8
0
10
190.906927
20
74.091178
11
191.923376
21
74.322440
0
LINE
8
0
10
191.923376
20
74.322440
11
192.885246
21
74.696376
0
LINE
8
0
10
192.885246
20
74.696376
11
193.778449
21
75.203574
0
LINE
8
0
10
193.778449
20
75.203574
11
194.588894
21
75.834625
0
LINE
8
0
10
194.588894
20
75.834625
11
195.302492
21
76.580118
0
LINE
8
0
10
195.302492
20
76.580118
11
195.905154
21
77.430643
0
LINE
8
0
10
195.905154
20
77.430643
11
196.382790
21
78.376790
0
LINE
8
0
10
196.382790
20
78.376790
11
196.714106
21
79.383555
0
LINE
8
0
10
196.714106
20
79.383555
11
196.889405
21
80.411125
0
LINE
8
0
10
196.889405
20
80.411125
11
196.911993
21
81.442880
0
LINE
8
0
10
196.911993
20
81.442880
11
196.785176
21
82.462200
0
LINE
8
0
10
196.785176
20
82.462200
11
196.512261
21
83.452463
0
LINE
8
0
10
196.512261
20
83.452463
11
196.096552
21
84.397047
0
LINE
8
0
10
196.096552
20
84.397047
11
195.541357
21
85.279334
0
LINE
8
0
10
195.541357
20
85.279334
11
194.849980
21
86.082700
0
LINE
8
0
10
174.850000
20
36.081800
11
174.850000
21
51.083600
0
LINE
8
0
10
174.850000
20
66.082800
11
174.850000
21
86.082700
0
LINE
8
0
10
174.850000
20
86.082700
11
184.850000
21
86.082700
0
LINE
8
0
10
194.850000
20
86.082700
11
204.850000
21
86.082700
0
LINE
8
0
10
174.850000
20
136.083000
11
174.850000
21
121.083000
0
LINE
8
0
10
174.850000
20
106.082000
11
174.850000
21
86.082700
0
LINE
8
0
10
144.850000
20
86.082700
11
154.850000
21
86.082700
0
LINE
8
0
10
164.850000
20
86.082700
11
174.850000
21
86.082700
 0 
ENDSEC
 0 
EOF