<?xml version="1.0" encoding="UTF-8" standalone="no"?>
<!-- Created with Inkscape (http://www.inkscape.org/) -->

<svg
   width="210mm"
   height="297mm"
   viewBox="0 0 210 297"
   version="1.1"
   id="svg5"
   xmlns="http://www.w3.org/2000/svg"
   xmlns:svg="http://www.w3.org/2000/svg">
  <defs
     id="defs2" />
  <g
     id="layer1">
    <path
       style="fill:none;stroke:#000000;stroke-width:0.025"
       d="m 49.622598,170.88083 c 1.119124,-3.86145 4.966843,-6.04339 7.462044,-8.95446 3.390643,-3.95575 -0.554106,-0.5652 3.357922,-4.47723 0.563097,-0.56309 1.276266,-0.95673 1.865511,-1.4924 3.009691,-2.73609 1.368041,-1.59605 4.104124,-4.10413 3.429312,-3.14353 1.896764,-1.56803 5.969635,-4.47722 2.029923,-1.44995 3.758205,-3.271 5.969638,-4.47723 0.587959,-0.32071 1.302139,-0.38404 1.865511,-0.74621 1.192797,-0.76679 2.138021,-1.88881 3.357919,-2.61171 3.348302,-1.98418 7.544152,-3.89371 11.193068,-5.59654 3.713533,-1.73298 7.47882,-3.19955 11.19307,-4.85032 0.6616,-0.29405 2.98481,-0.44812 2.98481,-1.11931"
       id="path3784" />
    <path
       style="fill:none;stroke:#000000;stroke-width:0.025"
       d="m 91.410048,189.53594 c 7.096215,-0.42687 13.346992,3.13751 19.401312,6.34274 0.98311,0.52046 2.03565,0.91236 2.98482,1.49241 1.29537,0.79161 2.42927,1.83066 3.73103,2.61171 1.19231,0.71539 2.5387,1.15012 3.73102,1.86551 2.41742,1.45046 3.91115,2.85985 5.96963,4.47723 1.33012,1.04509 2.76888,1.94629 4.10413,2.98482 3.45065,2.68384 1.76624,1.65014 4.85033,4.47723 4.60784,4.22385 -0.12096,-0.32063 4.47722,3.35791 1.19664,0.95731 2.27295,2.27295 3.35792,3.35792"
       id="path3786" />
    <path
       style="fill:none;stroke:#000000;stroke-width:0.025"
       d="m 64.173586,238.41233 c 6.21837,0 12.436739,0 18.655112,0 3.731022,0 7.480935,-0.37496 11.193068,0 8.627104,0.87143 17.167284,2.4561 25.744054,3.73102 1.99005,0.29582 6.41716,1.19373 7.83515,2.61172"
       id="path3788" />
  </g>
</svg>
