0
SECTION
2
HEADER
9
$INSUNITS
70
4
9
$ACADVER
1
AC1014
9
$HANDSEED
5
FFFF
0
ENDSEC
0
SECTION
2
TABLES
0
TABLE
2
VPORT
5
8
100
AcDbSymbolTable
0
ENDTAB
0
TABLE
2
LTYPE
5
5
100
AcDbSymbolTable
0
LTYPE
5
14
100
AcDbSymbolTableRecord
100
AcDbLinetypeTableRecord
2
BYBLOCK
70
0
0
LTYPE
5
15
100
AcDbSymbolTableRecord
100
AcDbLinetypeTableRecord
2
BYLAYER
70
0
0
ENDTAB
0
TABLE
2
LAYER
5
2
100
AcDbSymbolTable
70
2
0
LAYER
5
50
100
AcDbSymbolTableRecord
100
AcDbLayerTableRecord
2
0
70
0
6
CONTINUOUS
0
ENDTAB
0
TABLE
2
STYLE
5
3
100
AcDbSymbolTable
70
1
0
STYLE
5
11
100
AcDbSymbolTableRecord
100
AcDbTextStyleTableRecord
2
STANDARD
70
0
0
ENDTAB
0
TABLE
2
VIEW
5
6
100
AcDbSymbolTable
70
0
0
ENDTAB
0
TABLE
2
UCS
5
7
100
AcDbSymbolTable
70
0
0
ENDTAB
0
TABLE
2
APPID
5
9
100
AcDbSymbolTable
70
2
0
APPID
5
12
100
AcDbSymbolTableRecord
100
AcDbRegAppTableRecord
2
ACAD
70
0
0
ENDTAB
0
TABLE
2
DIMSTYLE
5
A
100
AcDbSymbolTable
70
1
0
ENDTAB
0
TABLE
2
BLOCK_RECORD
5
1
100
AcDbSymbolTable
70
1
0
BLOCK_RECORD
5
1F
100
AcDbSymbolTableRecord
100
AcDbBlockTableRecord
2
*MODEL_SPACE
0
BLOCK_RECORD
5
1B
100
AcDbSymbolTableRecord
100
AcDbBlockTableRecord
2
*PAPER_SPACE
0
ENDTAB
0
ENDSEC
0
SECTION
2
BLOCKS
0
BLOCK
5
20
100
AcDbEntity
100
AcDbBlockBegin
2
*MODEL_SPACE
0
ENDBLK
5
21
100
AcDbEntity
100
AcDbBlockEnd
0
BLOCK
5
1C
100
AcDbEntity
100
AcDbBlockBegin
2
*PAPER_SPACE
0
ENDBLK
5
1D
100
AcDbEntity
100
AcDbBlockEnd
0
ENDSEC
0
SECTION
2
ENTITIES
0
LWPOLYLINE
5
100
100
AcDbEntity
8
0
100
AcDbPolyline
90
35
70
1
43
0.0
10
7.8519618666988276
20
14.252434127379098
42
0.41421356237309548
10
6.856419027327691
20
20.538044237382493
10
0
20
25.519524250561211
10
-6.8564190273276759
20
20.538044237382511
42
0.41421356237309515
10
-7.8519618666988116
20
14.252434127379114
10
-4.6191429790902117
20
9.8028406583169048
10
-7.89566180630875
20
7.4223103865323896
10
-11.12848069391735
20
11.871903855594601
42
0.41421356237309448
10
-17.414090803920747
20
12.867446694965734
10
-24.270509831248436
20
7.885966681787016
10
-21.651590803920762
20
-0.17423729381440878
42
0.41421356237309542
10
-15.981260005905309
20
-3.0634151424553417
10
-10.75044916628196
20
-1.363821673393133
10
-9.4989303390634259
20
-5.2156005643885051
10
-14.729741178686773
20
-6.9151940334507138
42
0.41421356237309426
10
-17.618919027327703
20
-12.58552483146617
10
-15.000000000000014
20
-20.64572880706762
10
-6.5250000000000083
20
-20.64572880706762
42
0.41421356237309515
10
-2.0250000000000101
20
-16.145728807067616
10
-2.0250000000000092
20
-10.645728807067618
10
2.0249999999999915
20
-10.645728807067618
10
2.0249999999999915
20
-16.14572880706762
42
0.41421356237309503
10
6.5249999999999915
20
-20.64572880706762
10
14.999999999999996
20
-20.64572880706762
10
17.618919027327685
20
-12.585524831466193
42
0.41421356237309542
10
14.729741178686758
20
-6.9151940334507289
10
9.4989303390634205
20
-5.2156005643885255
10
10.750449166281957
20
-1.363821673393153
10
15.981260005905295
20
-3.0634151424553617
42
0.41421356237309481
10
21.651590803920755
20
-0.17423729381442946
10
24.270509831248429
20
7.8859666817870071
10
17.414090803920761
20
12.867446694965711
42
0.4142135623730957
10
11.128480693917366
20
11.871903855594576
10
7.8956618063087642
20
7.4223103865323736
10
4.6191429790902285
20
9.8028406583168888
0
ENDSEC
0
SECTION
2
OBJECTS
0
DICTIONARY
5
C
100
AcDbDictionary
3
ACAD_GROUP
350
D
3
ACAD_MLINESTYLE
350
17
0
DICTIONARY
5
D
100
AcDbDictionary
0
DICTIONARY
5
1A
330
C
100
AcDbDictionary
0
DICTIONARY
5
17
100
AcDbDictionary
0
ENDSEC
0
EOF
